<?xml version="1.0" standalone="no"?><!DOCTYPE svg PUBLIC "-//W3C//DTD SVG 1.1//EN" "http://www.w3.org/Graphics/SVG/1.1/DTD/svg11.dtd"><svg class="icon" height="512" viewBox="0 0 1024 1024" version="1.1" xmlns="http://www.w3.org/2000/svg"><path d="M522.715638 1019.259541a13.82394 13.82394 0 0 1-10.239955 4.735979 14.143938 14.143938 0 0 1-10.879953-4.735979L257.756797 719.612852a11.007952 11.007952 0 0 1 0-14.847935 13.63194 13.63194 0 0 1 15.359933-3.967983L447.195968 767.99664V0h127.99944v767.99664l173.439242-63.99972H743.514672l7.679966-3.071987a13.951939 13.951939 0 0 1 15.359933 4.031983 10.815953 10.815953 0 0 1 2.559989 7.359968 11.135951 11.135951 0 0 1-2.559989 7.487967l-243.838933 299.582689z" /></svg>