<?xml version="1.0" standalone="no"?><!DOCTYPE svg PUBLIC "-//W3C//DTD SVG 1.1//EN" "http://www.w3.org/Graphics/SVG/1.1/DTD/svg11.dtd"><svg class="icon" height="512" viewBox="0 0 1024 1024" version="1.1" xmlns="http://www.w3.org/2000/svg"><path d="M402.6152589999999 147.13436900000016l-319.6006849999998 319.6621180000001c-24.96129999999999 24.977682-24.961299999999984 65.427296 2.842170943040401e-14 90.416241L402.6152590000001 876.873822c24.966420000000006 24.966419999999992 65.42115300000002 24.966419999999992 90.387573-2.1316282072803006e-14 24.96027599999999-24.960276000000007 24.96027599999998-65.427296-2.1316282072803006e-14-90.404979l-210.48625000000007-210.50877499999996L895.2556349999999 575.9600679999999c35.308685-1.0658141036401503e-14 63.915018-28.622714000000027 63.91501799999998-63.93651900000002-7.105427357601002e-15-35.326091-28.605308000000022-63.959045-63.915018000000025-63.95904399999998l-612.739053 1.7053025658242404e-13L493.002832 237.52808500000003c12.463755999999993-12.463756000000002 18.725838999999993-28.812133000000006 18.725837999999978-45.194298-5.329070518200751e-15-16.35964-6.2293180000000135-32.753068-18.725838000000017-45.199418-24.966420000000014-24.977681999999987-65.42115300000002-24.977681999999987-90.387573 2.1316282072803006e-14z" fill="" /></svg>