<svg viewBox="0 0 976 373" height="373" width="976" xmlns="http://www.w3.org/2000/svg" xmlns:xlink="http://www.w3.org/1999/xlink">
    <style type="text/css"><![CDATA[
.st3 {fill:#00b0f0;font-family:Courier New;font-size:18pt;font-weight:bold}
.st5 {fill:#3ab982;font-family:Courier New;font-size:18pt;font-weight:bold}
.st2 {fill:#da5a64;font-family:Courier New;font-size:18pt;font-weight:bold}
.st1 {fill:#ffffff;font-family:Arial;font-size:12pt;font-weight:bold}
.st4 {fill:#ffffff;font-family:Courier New;font-size:18pt;font-weight:bold}
]]></style>
    <defs>
        <linearGradient y1="0%" y2="100%" x1="0%" x2="0%" id="lg1">
            <stop stop-color="#e29195" offset="0"/>
            <stop stop-color="#da5a64" offset="0.65"/>
            <stop stop-color="#c5515a" offset="1"/>
        </linearGradient>
        <linearGradient y1="0%" y2="100%" x1="0%" x2="0%" id="lg2">
            <stop stop-color="#83b3e3" offset="0"/>
            <stop stop-color="#3498db" offset="0.65"/>
            <stop stop-color="#2e89c6" offset="1"/>
        </linearGradient>
        <linearGradient y1="0%" y2="100%" x1="0%" x2="0%" id="lg3">
            <stop stop-color="#85caa5" offset="0"/>
            <stop stop-color="#3ab982" offset="0.65"/>
            <stop stop-color="#34a775" offset="1"/>
        </linearGradient>
        <linearGradient y1="0%" y2="100%" x1="0%" x2="0%" id="lg4">
            <stop stop-color="#8d9cb1" offset="0"/>
            <stop stop-color="#527294" offset="0.65"/>
            <stop stop-color="#496786" offset="1"/>
        </linearGradient>
    </defs>
    <g transform="translate(-5,-2134)">
        <g transform="translate(219.35,2135)" id="shape1">
            <path d="M132.8,72C141.1,72,147.9,65.2,147.9,56.9L147.9,15.1C147.9,6.8,141.1,0,132.8,0L15.1,0C6.8,0,0,6.8,0,15.1L0,56.9C0,65.2,6.8,72,15.1,72L132.8,72z" stroke="#ff9092" fill="url(#lg1)"/>
            <text class="st1">
                <tspan x="10.5" y="31">Инициализация </tspan>
                <tspan x="41.5" y="51">свойств</tspan>
            </text>
        </g>
        <g transform="translate(140,2171)" id="shape2">
            <path stroke="#476482" d="M0,0L62.7,0" stroke-dasharray="2.5,2.5" stroke-width="4.33333" fill="none"/>
            <path stroke="#476482" d="M62.7,-8.3L79.3,0L62.7,8.3L62.7,-8.3" stroke-width="1" fill="#476482" stroke-linecap="round"/>
        </g>
        <g transform="translate(412.25,2135)" id="shape3">
            <path d="M132.8,72C141.1,72,147.9,65.2,147.9,56.9L147.9,15.1C147.9,6.8,141.1,0,132.8,0L15.1,0C6.8,0,0,6.8,0,15.1L0,56.9C0,65.2,6.8,72,15.1,72L132.8,72z" stroke="#ff9092" fill="url(#lg1)"/>
            <text class="st1">
                <tspan x="40.5" y="31">Задание </tspan>
                <tspan x="16.5" y="51">реактивности </tspan>
            </text>
        </g>
        <g transform="translate(605.15,2135)" id="shape4">
            <path d="M132.8,72C141.1,72,147.9,65.2,147.9,56.9L147.9,15.1C147.9,6.8,141.1,0,132.8,0L15.1,0C6.8,0,0,6.8,0,15.1L0,56.9C0,65.2,6.8,72,15.1,72L132.8,72z" stroke="#ff9092" fill="url(#lg1)"/>
            <text class="st1">
                <tspan x="10.5" y="31">Присоединение </tspan>
                <tspan x="15.5" y="51">теневого DOM </tspan>
            </text>
        </g>
        <g transform="translate(843.45,2223.69)">
            <path stroke="#da5a64" d="M21.8,43.6L112,43.6C124,43.6,133.8,33.8,133.8,21.8C133.8,9.8,124,0,112,0L21.8,0C9.8,0,0,9.8,0,21.8C0,33.8,9.8,43.6,21.8,43.6z" stroke-width="4" fill="none" id="shape5"/>
            <text class="st2">
                <tspan x="18.4" y="27.3">created</tspan>
            </text>
        </g>
        <g transform="translate(367.25,2171)" id="shape6">
            <path stroke="#da5a64" d="M0,0L28.3,0" stroke-width="4.33333" fill="none"/>
            <path stroke="#da5a64" d="M28.3,-8.3L45,0L28.3,8.3L28.3,-8.3" stroke-width="1" fill="#da5a64" stroke-linecap="round"/>
        </g>
        <g transform="translate(560.15,2171)" id="shape7">
            <path stroke="#da5a64" d="M0,0L28.3,0" stroke-width="4.33333" fill="none"/>
            <path stroke="#da5a64" d="M28.3,-8.3L45,0L28.3,8.3L28.3,-8.3" stroke-width="1" fill="#da5a64" stroke-linecap="round"/>
        </g>
        <g transform="translate(605.15,2283.94)" id="shape8">
            <path d="M132.8,72C141.1,72,147.9,65.2,147.9,56.9L147.9,15.1C147.9,6.8,141.1,0,132.8,0L15.1,0C6.8,0,0,6.8,0,15.1L0,56.9C0,65.2,6.8,72,15.1,72L132.8,72z" stroke="#aecaea" fill="url(#lg2)"/>
            <text class="st1">
                <tspan x="23.5" y="31">Регистрация </tspan>
                <tspan x="27.5" y="51">телеметрии</tspan>
            </text>
        </g>
        <g transform="translate(412.25,2283.94)" id="shape9">
            <path d="M132.8,72C141.1,72,147.9,65.2,147.9,56.9L147.9,15.1C147.9,6.8,141.1,0,132.8,0L15.1,0C6.8,0,0,6.8,0,15.1L0,56.9C0,65.2,6.8,72,15.1,72L132.8,72z" stroke="#aecaea" fill="url(#lg2)"/>
            <text class="st1">
                <tspan x="25.5" y="21">Добавление </tspan>
                <tspan x="32.5" y="41">атрибутов </tspan>
                <tspan x="51.5" y="61">хоста</tspan>
            </text>
        </g>
        <g transform="translate(219.35,2283.94)" id="shape10">
            <path d="M132.8,72C141.1,72,147.9,65.2,147.9,56.9L147.9,15.1C147.9,6.8,141.1,0,132.8,0L15.1,0C6.8,0,0,6.8,0,15.1L0,56.9C0,65.2,6.8,72,15.1,72L132.8,72z" stroke="#aecaea" fill="url(#lg2)"/>
            <text class="st1">
                <tspan x="31.5" y="31">Рендеринг </tspan>
                <tspan x="38.5" y="51">шаблона</tspan>
            </text>
        </g>
        <g transform="translate(9,2373.53)">
            <path stroke="#00b0f0" d="M21.8,43.6L109.2,43.6C121.2,43.6,131,33.8,131,21.8C131,9.8,121.2,0,109.2,0L21.8,0C9.8,0,0,9.8,0,21.8C0,33.8,9.8,43.6,21.8,43.6z" stroke-width="4" fill="none" id="shape11"/>
            <text class="st3">
                <tspan x="31" y="27.3">ready</tspan>
            </text>
        </g>
        <g transform="translate(560.15,2319.94)" id="shape12">
            <path stroke="#00b0f0" d="M16.7,0L45,0" stroke-width="4.33333" fill="none"/>
            <path stroke="#00b0f0" d="M16.7,8.3L0,0L16.7,-8.3L16.7,8.3" stroke-width="1" fill="#00b0f0" stroke-linecap="round"/>
        </g>
        <g transform="translate(367.25,2319.94)" id="shape13">
            <path stroke="#00b0f0" d="M16.7,0L45,0" stroke-width="4.33333" fill="none"/>
            <path stroke="#00b0f0" d="M16.7,8.3L0,0L16.7,-8.3L16.7,8.3" stroke-width="1" fill="#00b0f0" stroke-linecap="round"/>
        </g>
        <path stroke="#00b0f0" d="M0,0L0,-75.4L44.1,-75.4" stroke-dasharray="2.5,2.5" stroke-width="4.33333" fill="none" transform="translate(175.25,2395.31)" id="shape14"/>
        <g transform="translate(217.35,2433.94)" id="shape15">
            <path d="M132.8,72C141.1,72,147.9,65.2,147.9,56.9L147.9,15.1C147.9,6.8,141.1,0,132.8,0L15.1,0C6.8,0,0,6.8,0,15.1L0,56.9C0,65.2,6.8,72,15.1,72L132.8,72z" stroke="#52da92" fill="url(#lg3)"/>
            <text class="st1">
                <tspan x="29.5" y="21">Отражение </tspan>
                <tspan x="41.5" y="41">свойств              </tspan>
                <tspan x="26.5" y="61">в атрибутах</tspan>
            </text>
        </g>
        <g transform="translate(410.25,2433.94)" id="shape16">
            <path d="M132.8,72C141.1,72,147.9,65.2,147.9,56.9L147.9,15.1C147.9,6.8,141.1,0,132.8,0L15.1,0C6.8,0,0,6.8,0,15.1L0,56.9C0,65.2,6.8,72,15.1,72L132.8,72z" stroke="#52da92" fill="url(#lg3)"/>
            <text class="st1">
                <tspan x="22.5" y="31">Выполнение </tspan>
                <tspan x="13.5" y="51">обозревателей</tspan>
            </text>
        </g>
        <g transform="translate(606.1,2433.94)" id="shape17">
            <path d="M132.8,72C141.1,72,147.9,65.2,147.9,56.9L147.9,15.1C147.9,6.8,141.1,0,132.8,0L15.1,0C6.8,0,0,6.8,0,15.1L0,56.9C0,65.2,6.8,72,15.1,72L132.8,72z" stroke="#52da92" fill="url(#lg3)"/>
            <text class="st1">
                <tspan x="23.5" y="31">Регистрация </tspan>
                <tspan x="25.5" y="51">слушателей</tspan>
            </text>
        </g>
        <g transform="translate(9,2149.22)">
            <path d="M21.8,43.6L109.2,43.6C121.2,43.6,131,33.8,131,21.8C131,9.8,121.2,0,109.2,0L21.8,0C9.8,0,0,9.8,0,21.8C0,33.8,9.8,43.6,21.8,43.6z" stroke="#476482" fill="url(#lg4)" id="shape18"/>
            <text class="st4">
                <tspan x="31" y="27.3">ODA()</tspan>
            </text>
        </g>
        <g transform="translate(140,2395.31)" id="shape19">
            <path stroke="#00b0f0" d="M16.7,0L35.3,0" stroke-dasharray="2.5,2.5" stroke-width="4.33333" fill="none"/>
            <path stroke="#00b0f0" d="M16.7,8.3L0,0L16.7,-8.3L16.7,8.3" stroke-width="1" fill="#00b0f0" stroke-linecap="round"/>
        </g>
        <path stroke="#da5a64" d="M0,0L40.9,0L40.9,74.9" stroke-dasharray="2.5,2.5" stroke-width="4.33333" fill="none" transform="translate(753.05,2171)" id="shape20"/>
        <g transform="translate(753.05,2319.94)" id="shape21">
            <path stroke="#00b0f0" d="M16.7,0L40.9,0L40.9,-74" stroke-dasharray="2.5,2.5" stroke-width="4.33333" fill="none"/>
            <path stroke="#00b0f0" d="M16.7,8.3L0,0L16.7,-8.3L16.7,8.3" stroke-width="1" fill="#00b0f0" stroke-linecap="round"/>
        </g>
        <g transform="translate(175.25,2395.31)" id="shape22">
            <path stroke="#73b081" d="M0,0L0,74.6L25.4,74.6" stroke-dasharray="2.5,2.5" stroke-width="4.33333" fill="none"/>
            <path stroke="#73b081" d="M25.4,66.3L42.1,74.6L25.4,83L25.4,66.3" stroke-width="1" fill="#73b081" stroke-linecap="round"/>
        </g>
        <g transform="translate(843.45,2448.16)">
            <path stroke="#3ab982" d="M21.8,43.6L112,43.6C124,43.6,133.8,33.8,133.8,21.8C133.8,9.8,124,0,112,0L21.8,0C9.8,0,0,9.8,0,21.8C0,33.8,9.8,43.6,21.8,43.6z" stroke-width="4" fill="none" id="shape23"/>
            <text class="st5">
                <tspan x="11.4" y="27.3">attached</tspan>
            </text>
        </g>
        <g transform="translate(754,2469.94)" id="shape24">
            <path stroke="#73b081" d="M0,0L72.8,0" stroke-dasharray="2.5,2.5" stroke-width="4.33333" fill="none"/>
            <path stroke="#73b081" d="M72.8,-8.3L89.4,0L72.8,8.3L72.8,-8.3" stroke-width="1" fill="#73b081" stroke-linecap="round"/>
        </g>
        <g transform="translate(365.25,2469.94)" id="shape25">
            <path stroke="#73b081" d="M0,0L28.3,0" stroke-width="4.33333" fill="none"/>
            <path stroke="#73b081" d="M28.3,-8.3L45,0L28.3,8.3L28.3,-8.3" stroke-width="1" fill="#73b081" stroke-linecap="round"/>
        </g>
        <g transform="translate(558.15,2469.94)" id="shape26">
            <path stroke="#73b081" d="M0,0L31.3,0" stroke-width="4.33333" fill="none"/>
            <path stroke="#73b081" d="M31.3,-8.3L47.9,0L31.3,8.3L31.3,-8.3" stroke-width="1" fill="#73b081" stroke-linecap="round"/>
        </g>
        <g transform="translate(794,2245.47)" id="shape27">
            <path stroke="#da5a64" d="M0,0L32.8,0" stroke-dasharray="2.5,2.5" stroke-width="4.33333" fill="none"/>
            <path stroke="#da5a64" d="M32.8,-8.3L49.4,0L32.8,8.3L32.8,-8.3" stroke-width="1" fill="#da5a64" stroke-linecap="round"/>
        </g>
    </g>
</svg>
