<svg viewBox="0 0 651 97" height="97" width="651" xmlns="http://www.w3.org/2000/svg" xmlns:xlink="http://www.w3.org/1999/xlink">
    <style type="text/css"><![CDATA[
.st1 {fill:#868686;font-family:Courier New;font-size:18pt;font-weight:bold}
.st2 {fill:#ffffff;font-family:Arial;font-size:12pt;font-weight:bold}
]]></style>
    <defs>
        <linearGradient y1="0%" y2="100%" x1="0%" x2="0%" id="lg1">
            <stop stop-color="#c5c5c6" offset="0"/>
            <stop stop-color="#b3b3b4" offset="0.65"/>
            <stop stop-color="#a2a2a3" offset="1"/>
        </linearGradient>
        <linearGradient y1="0%" y2="100%" x1="0%" x2="0%" id="lg2">
            <stop stop-color="#eb93b6" offset="0"/>
            <stop stop-color="#e6609d" offset="0.65"/>
            <stop stop-color="#d0568e" offset="1"/>
        </linearGradient>
    </defs>
    <g transform="translate(-143.8,-2568.81)">
        <g transform="translate(496.2,2595.73)">
            <path stroke="#868686" d="M21.8,43.6L112,43.6C124,43.6,133.8,33.8,133.8,21.8C133.8,9.8,124,0,112,0L21.8,0C9.8,0,0,9.8,0,21.8C0,33.8,9.8,43.6,21.8,43.6z" stroke-width="4" fill="none" id="shape1"/>
            <text class="st1">
                <tspan x="11.4" y="27.3">detached</tspan>
            </text>
        </g>
        <g transform="translate(442.15,2617.51)" id="shape2">
            <path stroke="#868686" d="M0,0L37.4,-0.4" stroke-width="4.33333" fill="none"/>
            <path stroke="#868686" d="M37.3,-8.7L54,-0.5L37.5,8L37.3,-8.7" stroke-width="1" fill="#868686" stroke-linecap="round"/>
        </g>
        <g transform="translate(294.25,2581.51)" id="shape3">
            <path d="M132.8,72C141.1,72,147.9,65.2,147.9,56.9L147.9,15.1C147.9,6.8,141.1,0,132.8,0L15.1,0C6.8,0,0,6.8,0,15.1L0,56.9C0,65.2,6.8,72,15.1,72L132.8,72z" stroke="#ebebeb" fill="url(#lg1)"/>
            <text class="st2">
                <tspan x="36.5" y="31">Удаление </tspan>
                <tspan x="25.5" y="51">слушателей</tspan>
            </text>
        </g>
        <g transform="translate(144.8,2569.81)" id="shape4">
            <path d="M0,47.7C0,21.4,21.4,0,47.7,0C74,0,95.4,21.4,95.4,47.7C95.4,74,74,95.4,47.7,95.4C21.4,95.4,0,74,0,47.7z" stroke="#ffabcd" fill="url(#lg2)"/>
            <text class="st2">
                <tspan x="10.2" y="42.7">Удаление</tspan>
                <tspan x="18.2" y="62.7">из DOM</tspan>
            </text>
        </g>
        <g transform="translate(294.25,2617.51)" id="shape5">
            <path stroke="#868686" d="M-16.7,0L-54,0" stroke-dasharray="2.5,2.5" stroke-width="4.33333" fill="none"/>
            <path stroke="#868686" d="M-16.7,-8.3L0,0L-16.7,8.3L-16.7,-8.3" stroke-width="1" fill="#868686" stroke-linecap="round"/>
        </g>
        <g transform="translate(698.62,2569.81)" id="shape6">
            <path d="M0,47.7C0,21.4,21.4,0,47.7,0C74,0,95.4,21.4,95.4,47.7C95.4,74,74,95.4,47.7,95.4C21.4,95.4,0,74,0,47.7z" stroke="#ebebeb" fill="url(#lg1)"/>
            <text class="st2">
                <tspan x="19.2" y="42.7">Удален       </tspan>
                <tspan x="18.2" y="62.7">из DOM</tspan>
            </text>
        </g>
        <g transform="translate(630,2617.51)" id="shape7">
            <path stroke="#868686" d="M0,0L52,0" stroke-dasharray="2.5,2.5" stroke-width="4.33333" fill="none"/>
            <path stroke="#868686" d="M52,-8.3L68.6,0L52,8.3L52,-8.3" stroke-width="1" fill="#868686" stroke-linecap="round"/>
        </g>
    </g>
</svg>
