<svg version="1.1" baseProfile="full" width="95" height="98"
    xmlns="http://www.w3.org/2000/svg" id="pterodactyl">
    <path d="
        M0 38,
        h4,
        v-4,
        h5,
        v-5,
        h4,
        v-4,
        h5,
        v-5,
        h9,
        v9,
        h4,
        v9,
        h32,
        v4,
        h5,
        v5,
        h27,
        v4,
        h-14,
        v5,
        h9,
        v4,
        h-13,
        v5,
        h-32,
        v-5,
        h-4,
        v-4,
        h-5,
        v-5,
        h-5,
        v-4,
        h-4,
        v-5,
        h-27,
        z
        " fill="grey" stroke="transparent" id="body">
    </path>

    <!--Верхнее крыло-->
    <path d="
        M36 38,
        v-18,
        h-5,
        v-13,
        h5,
        v4,
        h5,
        v5,
        h4,
        v4,
        h5,
        v5,
        h4,
        v4,
        h5,
        v5,
        h4,
        v4,
        z
        " fill="grey" id="top-wing" visibility="visible">
    </path>

    <!--Нижнее крыло-->
    <path d="
        M36 50,
        h18,
        v18,
        h-5,
        v5,
        h-4,
        v9,
        h-5,
        v5,
        h-4,
        z
        " fill="grey" id="bottom-wing" visibility="visible">
    </path>


    <animate href="#top-wing" attributeName="visibility" values="visible;hidden" dur="0.3s"
        repeatCount="indefinite" id="top-wing-anim"/>

    <animate href = "#bottom-wing" attributeName="visibility"
        values = "hidden;visible" dur="0.3s" repeatCount="indefinite"></animate>


</svg>