<svg version="1.1" id="Layer_1" xmlns="http://www.w3.org/2000/svg" x="0" y="0" viewBox="0 0 168.8 192" style="enable-background:new 0 0 168.8 192" xml:space="preserve"><style>.st1,.st2,.st3{fill-rule:evenodd;clip-rule:evenodd;fill:#00a0dc}.st2,.st3{fill:#90cef1}.st3{fill:#fff}</style><path d="m89.3 190.5 74.6-43.1c1.5-.9 2.7-2.1 3.6-3.6.9-1.5 1.3-3.2 1.3-4.9V52.8c0-1.7-.5-3.4-1.3-4.9-.9-1.5-2.1-2.7-3.6-3.6l-74.6-43C87.8.4 86.1 0 84.4 0c-1.7 0-3.4.4-4.9 1.3L4.9 44.4c-1.5.9-2.7 2.1-3.6 3.6C.5 49.4 0 51.1 0 52.8V139c0 1.7.5 3.4 1.3 4.9.9 1.5 2.1 2.7 3.6 3.6l74.6 43.1c1.5.8 3.2 1.3 4.9 1.3 1.7-.1 3.4-.5 4.9-1.4" style="fill-rule:evenodd;clip-rule:evenodd"/><path class="st1" d="m80.7 147-38.3 22.1 3.6 2.1 38.3-22.1-3.6-2.1zm21.7-14.1c-.9 1.5-2.1 2.8-3.7 3.6l-14.4 8.3L88 147l12.5-7.2c2.1-1.2 3.8-2.9 5-5l-3.1-1.9zm1.4-6.1v.9c0 .6-.1 1.2-.2 1.7l3.3 1.9c.3-1.2.5-2.4.5-3.6v-3l-3.6 2.1zm-88.4 26.7 3.6 2.1v-65c0-1.8.5-3.5 1.4-5.1.9-1.5 2.2-2.8 3.7-3.7L96 40.3c1.6-.9 3.6-.9 5.2 0s2.6 2.6 2.6 4.5V65l3.6 2.1V44.7c0-3.1-1.7-6.1-4.4-7.6-2.7-1.6-6.1-1.6-8.8 0L22.3 78.6c-2.1 1.2-3.8 3-5.1 5.1-1.2 2.1-1.9 4.5-1.9 6.9v62.9z"/><path class="st2" d="M42 67.2V22.9L38.4 25v44.3l3.6-2.1zM43.3 93c-.9-1.5-1.3-3.2-1.3-5V71.4l-3.6 2.1V88c0 2.4.6 4.7 1.8 6.8l3.1-1.8zm4.7 4.3-.8-.5c-.5-.3-1-.6-1.4-1l-3.3 1.9c.9.9 1.8 1.6 2.9 2.3l2.7 1.5v-4.2zM69 7.4l-3.6 2.1L121.7 42c1.6.9 2.8 2.2 3.7 3.7.9 1.5 1.4 3.3 1.4 5.1v83.1c0 1.8-1 3.6-2.6 4.5-1.6.9-3.6.9-5.2 0l-17.6-10.2-3.6 2.1 19.5 11.2c2.7 1.6 6.1 1.6 8.8 0 2.7-1.6 4.4-4.5 4.4-7.6V50.8c0-2.4-.7-4.8-1.9-6.9-1.2-2.1-3-3.9-5.1-5.1L69 7.4z"/><path class="st3" d="m130.4 73.6 38.3 22.1v-4.2l-38.3-22.1v4.2zm-23-11.8c1.7 0 3.5.5 5 1.4l14.4 8.3v-4.2L114.2 60c-2.1-1.2-4.4-1.8-6.8-1.8v3.6zm-6 1.9.8-.5c.5-.3 1-.5 1.6-.7v-3.8c-1.2.3-2.3.8-3.4 1.4l-2.6 1.5 3.6 2.1zm67.4 63.2v-4.2l-56.3 32.5c-1.5.9-3.3 1.4-5.1 1.4-1.8 0-3.5-.5-5.1-1.4l-71.9-41.5c-1.6-.9-2.6-2.6-2.6-4.5 0-1.8 1-3.5 2.6-4.5L48 94.5v-4.2l-19.5 11.3c-2.7 1.6-4.4 4.5-4.4 7.6 0 3.1 1.7 6 4.4 7.6l71.9 41.5c2.1 1.2 4.5 1.8 6.9 1.8 2.4 0 4.8-.6 6.9-1.8l54.6-31.4zM86.4 75.2c0-1.8.9-3.4 2.5-4.3l7.5-4.4c.6-.4 1-1 1-1.8 0-.7-.4-1.4-1-1.8l-10.1-5.8c-.6-.3-1.3-.5-2-.5s-1.4.2-2 .5l-10 5.9c-.6.4-1 1-1 1.8 0 .7.4 1.4 1 1.8l7.5 4.4c1.5.9 2.5 2.5 2.5 4.3 0 1.8-.9 3.4-2.5 4.3L72.3 84c-.6.4-1 1-1 1.8 0 .7.4 1.4 1 1.8l4.5 2.6 5.6 3.2c.6.3 1.3.5 2 .5s1.4-.2 2-.5l5.6-3.2 4.5-2.6c.6-.4 1-1 1-1.8 0-.7-.4-1.4-1-1.8L89 79.6c-1.6-1-2.6-2.7-2.6-4.4m29 0c0-.7-.4-1.4-1-1.8l-10.1-5.8c-.6-.3-1.3-.5-2-.5s-1.4.2-2 .5l-10.1 5.8c-.6.4-1 1-1 1.8 0 .7.4 1.4 1 1.8l10.1 5.8c.6.3 1.3.5 2 .5s1.4-.2 2-.5l10.1-5.8c.7-.4 1-1.1 1-1.8zm-35.9 0c0-.7-.4-1.4-1-1.8l-10.1-5.8c-.6-.3-1.3-.5-2-.5s-1.4.2-2 .5l-10.1 5.8c-.6.4-1 1-1 1.8 0 .7.4 1.4 1 1.8l10.1 5.8c.6.3 1.3.5 2 .5s1.4-.2 2-.5L78.5 77c.6-.4 1-1.1 1-1.8z"/><path class="st2" d="M65.4 104.5c-1.5.9-3.4.9-4.9 0l-7.5-4.4c-.6-.4-1.4-.4-2 0-.6.4-1 1-1 1.8v11.6c0 .7.2 1.4.5 2 .4.6.9 1.1 1.5 1.5l10.1 5.8c.6.4 1.4.4 2 0 .6-.4 1-1 1-1.8v-8.7c0-1.8.9-3.4 2.5-4.3 1.5-.9 3.4-.9 4.9 0l7.5 4.4c.6.4 1.4.4 2 0 .6-.4 1-1 1-1.8V99.1c0-.7-.2-1.4-.5-2-.4-.6-.9-1.1-1.5-1.5l-10.1-5.8c-.6-.4-1.4-.4-2 0-.6.4-1 1-1 1.8v8.7c-.1 1.7-1 3.3-2.5 4.2m3.4 6c-.6.4-1 1-1 1.8V123.9c0 .7.2 1.4.5 2 .4.6.9 1.1 1.5 1.5l10.1 5.8c.6.4 1.4.4 2 0 .6-.4 1-1 1-1.8v-11.6c0-.7-.2-1.4-.5-2-.4-.6-.9-1.1-1.5-1.5l-10.1-5.8c-.5-.3-1.3-.3-2 0zM50.9 79.4c-.6.4-1 1-1 1.8v11.6c0 .7.2 1.4.5 2 .4.6.9 1.1 1.5 1.5l10.1 5.8c.6.4 1.4.4 2 0 .6-.4 1-1 1-1.8V88.7c0-.7-.2-1.4-.5-2-.4-.6-.9-1.1-1.5-1.5l-10.1-5.8c-.6-.4-1.4-.4-2 0z"/><path class="st1" d="M101.3 108.1c1.5.9 2.5 2.5 2.5 4.3v8.7c0 .7.4 1.4 1 1.8.6.4 1.4.4 2 0l10.1-5.8c.6-.4 1.1-.9 1.5-1.5.3-.6.5-1.3.5-2V102c0-.7-.4-1.4-1-1.8-.6-.4-1.4-.4-2 0l-7.5 4.4c-1.5.9-3.4.9-4.9 0-1.5-.9-2.5-2.5-2.5-4.3v-8.7c0-.7-.4-1.4-1-1.8-.6-.4-1.4-.4-2 0l-10.1 5.8c-.6.4-1.1.9-1.5 1.5-.4.6-.5 1.3-.5 2v11.6c0 .7.4 1.4 1 1.8.6.4 1.4.4 2 0l7.5-4.4c1.5-.9 3.4-.9 4.9 0m3.5-6c.6.4 1.4.4 2 0l10.1-5.8c.6-.4 1.1-.9 1.5-1.5.3-.6.5-1.3.5-2V81.2c0-.7-.4-1.4-1-1.8-.6-.4-1.4-.4-2 0l-10.1 5.8c-.6.4-1.1.9-1.5 1.5-.3.6-.5 1.3-.5 2v11.6c0 .7.4 1.4 1 1.8zm-18 31.1c.6.4 1.4.4 2 0l10.1-5.8c.6-.4 1.1-.9 1.5-1.5.3-.6.5-1.3.5-2v-11.6c0-.7-.4-1.4-1-1.8-.6-.4-1.4-.4-2 0l-10.1 5.8c-.6.4-1.1.9-1.5 1.5-.4.6-.5 1.3-.5 2v11.6c0 .8.4 1.4 1 1.8z"/></svg>