<svg version="1.1" id="Layer_1" xmlns="http://www.w3.org/2000/svg" x="0" y="0" viewBox="0 0 300 139.7" style="enable-background:new 0 0 300 139.7" xml:space="preserve"><style>.st0,.st1,.st2{fill:#90cef1}.st1,.st2{fill-rule:evenodd;clip-rule:evenodd}.st2{fill:#00a0dc}</style><path class="st0" d="m123 140-66-38.9c-.4-.2-.7-.4-1.1-.6-.4-.2-.8-.3-1.2-.5-2.1-.7-4.4-1-6.7-.9h-.1c-.5 0-1 .1-1.5.1s-1 .1-1.4.2c-2.4.4-4.8 1.2-6.7 2.3L.6 124v-1.7l37.1-21.8c2.1-1.2 4.6-2.1 7.2-2.5.5-.1 1-.2 1.5-.2.5-.1 1-.1 1.6-.1h.1c2.5-.1 5 .2 7.2 1 .4.2.9.3 1.3.5l1.2.6h.1l68.1 40.1h-3z"/><path class="st0" d="m70 140-30.2-17.8h-.1c-.2-.1-.5-.3-.7-.4-.2-.1-.5-.2-.8-.4-1.3-.6-2.7-.9-4-.9H33.4c-.2 0-.4 0-.6.1-1.1.2-2.1.6-3.1 1.3-.1.1-.3.2-.4.3-.1.1-.2.2-.4.3-.6.6-1.1 1.3-1.4 2.1-.1.2-.1.3-.2.5s-.1.3-.2.5c-.3.9-.4 1.9-.4 2.9v11.4h-1.4v-11.4c0-1.2.2-2.3.5-3.4.1-.2.1-.4.2-.6.1-.2.2-.4.2-.6.4-.9 1-1.8 1.7-2.5.1-.1.3-.3.5-.4.2-.1.3-.3.5-.4 1.2-.9 2.4-1.3 3.7-1.5.2 0 .5-.1.8-.1h.9c1.5 0 3.1.4 4.5 1.1.3.1.6.2.8.4.3.1.5.3.8.4h.1l32.4 19H70z"/><path class="st0" d="M142.6 73.3c-.3 0-.6 0-.9.1-.3 0-.5.1-.8.1-1.4.3-2.7.8-3.9 1.5l-73.5 43.2c-.4.2-.7.5-1.1.7-.4.3-.7.5-1.1.8-1.9 1.5-3.6 3.5-4.9 5.7-.7 1.1-1.3 2.3-1.7 3.5l-.6 1.8c-.1.3-.1.6-.2.9-.2.9-.3 1.8-.3 2.7v5.5h-1.4v-5.5c0-1 .1-2 .3-3 .1-.3.1-.6.2-1 .2-.7.4-1.3.6-2 .5-1.3 1.1-2.6 1.8-3.8 1.4-2.3 3.2-4.4 5.2-6l1.2-.9c.4-.3.8-.5 1.2-.8l73.5-43.2c1.3-.8 2.8-1.4 4.3-1.7.3-.1.6-.1.9-.1.3 0 .6-.1.9-.1h.1c1.3 0 2.6.2 3.8.8.2.1.5.2.7.4.2.1.5.3.7.5l.1.1c.9.6 1.6 1.4 2.1 2.3.1.2.2.3.3.5.1.2.2.3.3.5.3.7.6 1.5.7 2.3 0 .2.1.4.1.6 0 .2.1.4.1.6v59.6h-1.4V80.5c0-.2 0-.4-.1-.5 0-.2-.1-.3-.1-.5-.1-.7-.3-1.4-.6-2-.1-.1-.1-.3-.2-.4-.1-.2-.2-.3-.2-.4-.5-.7-1-1.4-1.7-1.9l-.1-.1c-.2-.1-.4-.3-.6-.4l-.6-.3c-.9-.5-2-.7-3.1-.7"/><path class="st0" d="M102 123.7c-.2.1-.5.3-.7.5-.2.2-.5.3-.7.5-1.1.9-2.1 1.9-2.9 3.1l-.3.6-.3.6c-.4 1.1-.6 2.2-.5 3.4 0 .2 0 .4.1.5 0 .2.1.3.1.5.2.8.6 1.6 1.1 2.3.1.1.2.3.3.4.1.1.2.3.4.4.7.7 1.4 1.3 2.3 1.8l2.6 1.6h-2.9l-.5-.3c-1-.6-1.9-1.3-2.6-2.1-.1-.2-.3-.3-.4-.5-.1-.2-.3-.3-.4-.5-.6-.8-1-1.8-1.3-2.8 0-.2-.1-.4-.1-.6 0-.2-.1-.4-.1-.6-.1-1.5.1-2.8.6-4.1.1-.2.2-.5.3-.7.1-.2.2-.5.4-.7.8-1.4 1.9-2.5 3.2-3.5.2-.2.5-.4.8-.5.3-.2.5-.3.8-.5l73.4-43.2c2.1-1.2 4.6-2.1 7.2-2.5.5-.1 1-.2 1.5-.2.5-.1 1-.1 1.6-.1h.1c2.5-.1 5 .2 7.2 1 .4.2.9.3 1.3.5l1.2.6h.1l75.6 44.5c1 .6 1.9 1.3 2.6 2.1.1.2.3.3.4.5.1.2.3.3.4.5.6.8 1 1.8 1.3 2.8 0 .2.1.4.1.6 0 .2.1.4.1.6.1 1.5-.1 2.8-.6 4.1-.1.2-.2.5-.3.7-.1.2-.2.5-.4.7-.8 1.4-1.9 2.5-3.2 3.5-.2.2-.5.4-.8.5-.1.1-.2.1-.2.1H267l1.5-.9c.2-.1.5-.3.7-.4.2-.2.5-.3.7-.5 1.1-.9 2.1-1.9 2.9-3.1l.3-.6.3-.6c.4-1.1.6-2.2.5-3.4 0-.2 0-.4-.1-.5 0-.2-.1-.3-.1-.5-.2-.8-.6-1.6-1.1-2.3-.1-.1-.2-.3-.3-.4-.1-.1-.2-.3-.4-.4-.7-.7-1.4-1.3-2.3-1.8L194 79.9c-.4-.2-.7-.4-1.1-.6-.4-.2-.8-.3-1.2-.5-2.1-.7-4.4-1-6.7-.9h-.1c-.5 0-1 .1-1.5.1s-1 .1-1.4.2c-2.4.4-4.8 1.2-6.7 2.3L102 123.7z"/><path class="st0" d="m243.2 140-66.5-39.1h-.1c-.2-.1-.5-.3-.7-.4-.2-.1-.5-.2-.8-.4-1.3-.6-2.7-.9-4-.9H170.3c-.2 0-.4 0-.6.1-1.1.2-2.1.6-3.1 1.3-.1.1-.3.2-.4.3-.1.1-.2.2-.4.3-.6.6-1.1 1.3-1.4 2.1-.1.2-.2.3-.2.5-.1.2-.1.3-.2.5-.3.9-.4 1.9-.4 2.9v32.7h-1.4v-32.7c0-1.2.2-2.3.5-3.4.1-.2.1-.4.2-.6.1-.2.2-.4.2-.6.4-.9 1-1.8 1.7-2.5.1-.1.3-.3.5-.4.2-.1.3-.3.5-.4 1.2-.9 2.4-1.3 3.7-1.5.2 0 .5-.1.8-.1h.9c1.5 0 3.1.4 4.5 1 .3.1.6.2.8.4.3.1.5.3.8.4h.1l68.6 40.3h-2.8z"/><path class="st0" d="M287.1 140V96.9l1.4.9v42.3h-1.4zM244 71.5 200.6 97c-.4.2-.7.5-1.1.7-.4.3-.7.5-1.1.8-1.9 1.5-3.6 3.5-4.9 5.7-.6.9-1.1 1.9-1.5 2.9-.4 1-.7 2-1 3-.1.2-.1.5-.1.7-.1.8-.2 1.6-.2 2.3v26.8h-1.4v-26.8c0-.9.1-1.7.2-2.6 0-.3.1-.5.1-.7.2-1.1.6-2.2 1-3.3.4-1.1 1-2.1 1.6-3.1 1.4-2.3 3.2-4.4 5.2-6l1.2-.9c.4-.3.8-.5 1.2-.8l42.7-25.1 1.5.9zM4.1 94.6c-.3 0-.6 0-.9.1-.3 0-.5.1-.8.1-.6.1-1.3.3-1.9.6v-1.5c.5-.2 1.1-.3 1.6-.4.3-.1.6-.1.9-.1.3 0 .6-.1.9-.1H4c1.3 0 2.6.2 3.8.8.2.1.5.2.7.4.2.1.5.3.7.5l.1.1c.9.6 1.6 1.4 2.1 2.3.1.2.2.3.3.5.1.2.2.3.3.5.3.7.6 1.5.7 2.3 0 .2.1.4.1.6 0 .2.1.4.1.6V140.2h-1.4v-38.1c0-.2 0-.4-.1-.5 0-.2-.1-.3-.1-.5-.1-.7-.3-1.4-.6-2-.1-.1-.1-.3-.2-.4-.1-.2-.2-.3-.2-.4-.5-.7-1-1.4-1.7-1.9l-.1-.1c-.2-.1-.4-.3-.6-.4l-.6-.3c-1-.8-2.1-1-3.2-1M15.2 14.5c-.2.1-.5.3-.7.5-.2.2-.5.3-.7.5-1.1.9-2.1 1.9-2.9 3.1l-.3.6-.3.6c-.4 1.1-.6 2.2-.5 3.4 0 .2 0 .4.1.5 0 .2.1.3.1.5.2.8.6 1.6 1.1 2.3.1.1.2.3.3.4.1.1.2.3.4.4.7.7 1.4 1.3 2.3 1.8l75.6 44.5h.1c.4.2.7.4 1.1.6.4.2.8.3 1.2.5 2.1.7 4.4 1 6.7.9h.1c.5 0 1-.1 1.5-.1s1-.1 1.4-.2c2.4-.4 4.8-1.2 6.7-2.3l69.3-40.8 1.4.8-70 41.2c-2.1 1.2-4.6 2.1-7.2 2.5-.5.1-1 .2-1.5.2-.5.1-1 .1-1.6.1h-.1c-2.5.1-5-.2-7.2-1-.4-.2-.9-.3-1.3-.5l-1.2-.6H89L13.4 30.5c-1-.6-1.9-1.3-2.6-2.1-.1-.2-.3-.3-.4-.5-.1-.2-.3-.3-.4-.5-.6-.8-1-1.8-1.3-2.8 0-.2-.1-.4-.1-.6 0-.2-.1-.4-.1-.6-.1-1.5.1-2.8.6-4.1.1-.2.2-.5.3-.7.1-.2.2-.5.4-.7.8-1.4 1.9-2.5 3.2-3.5.2-.2.5-.4.8-.5.3-.2.5-.3.8-.5L37 0h2.9L15.2 14.5z"/><path class="st0" d="m77 0-.1 87.1c0 .4 0 .8.1 1.2 0 .4.1.8.2 1.3.4 2.2 1.3 4.4 2.6 6.4.3.4.5.8.8 1.2l.9 1.2c1.6 2 3.4 3.6 5.4 4.8l62.4 36.7h-2.9l-60.3-35.5c-2.1-1.2-4.1-3-5.8-5.1-.3-.4-.6-.8-.9-1.3-.3-.4-.6-.9-.9-1.3-1.3-2.2-2.3-4.5-2.7-6.9-.1-.5-.2-.9-.2-1.4 0-.5-.1-.9-.1-1.4V0H77zm96.3 140 .1-88.9c0-.7-.1-1.5-.2-2.2-.1-.4-.1-.8-.2-1.2l-.3-1.2c-.5-1.5-1.2-3-2-4.4-.3-.4-.5-.9-.8-1.2l-.9-1.2c-1.6-2-3.4-3.6-5.4-4.8L104.1 0h2.9l57.3 33.7c2.1 1.2 4.1 3 5.8 5.1.3.4.6.8.9 1.3.3.4.6.9.9 1.3.9 1.5 1.6 3.1 2.2 4.7.1.4.3.8.4 1.3.1.4.2.8.3 1.3.1.8.2 1.7.2 2.5l-.1 88.9h-1.6z"/><path class="st0" d="M104.5 0c0 .1-.1.3-.1.4-.1.3-.1.6-.2.9-.1.9-.2 1.8-.2 2.7l.1 89c0 .4 0 .7.1 1.1 0 .2 0 .3.1.5 0 .2.1.4.1.5.1.7.3 1.3.6 1.9.1.1.1.3.2.4.1.1.2.3.2.4.5.7 1 1.4 1.7 1.9l.1.1c.2.1.4.3.6.4l.6.3c1 .5 2.1.7 3.2.6h.1c.2 0 .5 0 .8-.1.3 0 .5-.1.8-.1 1.4-.3 2.7-.8 3.9-1.5l73.5-43.2c.4-.2.7-.5 1.1-.7.4-.3.7-.5 1.1-.8 1.9-1.5 3.6-3.5 4.9-5.7.6-.9 1.1-1.9 1.5-2.9.1-.3.2-.5.3-.8l1.3.7c-.1.2-.2.4-.2.6-.4 1.1-1 2.1-1.6 3.1-1.4 2.3-3.2 4.4-5.2 6l-1.2.9c-.4.3-.8.5-1.2.8L118 100.6c-1.3.8-2.8 1.4-4.3 1.7-.3.1-.6.1-.9.1-.3 0-.6.1-.9.1h-.1c-1.3 0-2.6-.2-3.8-.8-.2-.1-.5-.2-.7-.4-.2-.1-.5-.3-.7-.5l-.1-.1c-.9-.6-1.6-1.4-2.1-2.3-.1-.2-.2-.3-.3-.5-.1-.2-.2-.3-.3-.5-.3-.7-.6-1.4-.7-2.2 0-.2-.1-.4-.1-.6 0-.2-.1-.4-.1-.6 0-.4-.1-.8-.1-1.2l-.1-89c0-1 .1-2 .3-3 .1-.3.1-.6.2-1h1.3zM297.3 125.2c.3.2.6.3.8.4.2.1.5.2.8.4.4.2.7.3 1.1.4-.2.5-.4.9-.6 1.3-.4-.1-.7-.3-1.1-.4-.3-.1-.6-.3-.8-.4-.3-.1-.5-.3-.8-.4h-.1l-73.5-43.2c-2.1-1.2-4.1-3-5.8-5.1-.3-.4-.6-.8-.9-1.3-.3-.4-.6-.9-.9-1.3-1.3-2.2-2.3-4.5-2.7-6.9-.1-.5-.2-.9-.2-1.4 0-.5-.1-.9-.1-1.4V53l1.4.9v12c0 .4 0 .8.1 1.2 0 .4.1.8.2 1.3.4 2.2 1.3 4.4 2.6 6.4.3.4.5.8.8 1.2l.9 1.2c1.6 2 3.4 3.6 5.4 4.8l73.4 43.2z"/><path class="st0" d="M241 69.7v2.8c0 .2 0 .4.1.5 0 .2.1.3.1.5.1.7.3 1.4.6 2 .1.1.1.3.2.4.1.1.2.3.2.4.5.7 1 1.4 1.7 1.9l.1.1c.2.1.4.3.6.4l.6.3c1 .5 2.1.7 3.2.6h.1c.2 0 .5 0 .8-.1.3 0 .5-.1.8-.1 1.4-.3 2.7-.8 3.9-1.5l.5-.3 1.4.8-1.2.7c-1.3.8-2.8 1.4-4.3 1.7-.3.1-.6.1-.9.1-.3 0-.6.1-.9.1h-.1c-1.3 0-2.6-.2-3.8-.8-.2-.1-.5-.2-.7-.4-.2-.1-.5-.3-.7-.5l-.1-.1c-.9-.6-1.6-1.4-2.1-2.3-.1-.2-.2-.3-.3-.5-.1-.2-.2-.3-.3-.5-.3-.7-.6-1.5-.7-2.3 0-.2-.1-.4-.1-.6 0-.2-.1-.4-.1-.6v-3.9l1.4 1.2zM.6 76.4l42.8-25.2c.3-.1.5-.3.7-.4.2-.2.5-.3.7-.5 1.1-.9 2.1-1.9 2.9-3.1l.3-.6.3-.6c.4-1.1.6-2.2.5-3.4 0-.2 0-.4-.1-.5 0-.2-.1-.3-.1-.5-.2-.8-.6-1.6-1.1-2.3-.1-.1-.2-.3-.3-.4-.1-.1-.2-.3-.4-.4-.7-.7-1.4-1.3-2.3-1.8L.6 10.6V9l44.6 26.3c1 .6 1.9 1.3 2.6 2.1.1.2.3.3.4.5.1.2.3.3.4.5.6.8 1 1.8 1.3 2.8 0 .2.1.4.1.6 0 .2.1.4.1.6.1 1.5-.1 2.8-.6 4.1-.1.2-.2.5-.3.7-.1.2-.2.5-.4.7-.8 1.4-1.9 2.5-3.2 3.5-.2.2-.5.4-.8.5-.3.2-.5.3-.8.5L.6 78.1v-1.7z"/><path class="st0" d="M34.9 140V72.4c0-.7-.1-1.5-.2-2.2-.1-.4-.1-.8-.2-1.2l-.3-1.2c-.5-1.5-1.2-3-2-4.4-.3-.4-.5-.9-.8-1.2l-.9-1.2c-1.6-2-3.4-3.6-5.4-4.8L.6 41.8v-1.7L25.8 55c2.1 1.2 4.1 3 5.8 5.1.3.4.6.8.9 1.3.3.4.6.9.9 1.3.9 1.5 1.6 3.1 2.2 4.7.1.4.3.8.4 1.3.1.4.2.8.3 1.3.1.8.2 1.7.2 2.5v67.6h-1.6z"/><path class="st0" d="m.6 107.7 51.5-30.3c.4-.2.7-.5 1.1-.7.4-.3.7-.5 1.1-.8 1.9-1.5 3.6-3.5 4.9-5.7.6-.9 1.1-1.9 1.5-2.9.4-1 .7-2 1-3 .1-.2.1-.5.1-.7.1-.8.2-1.6.2-2.3V0h1.4v61.3c0 .9-.1 1.7-.2 2.6 0 .3-.1.5-.1.7-.2 1.1-.6 2.2-1 3.3-.4 1.1-1 2.1-1.6 3.1-1.4 2.3-3.2 4.4-5.2 6l-1.2.9c-.4.3-.8.5-1.2.8L.6 109.4v-1.7z"/><path class="st1" d="M113 0v3.7c0 .1-.1.3-.2.5s-.2.3-.4.4l-3.9 2.3-3.9 2.3c-.1.1-.3.1-.5.1s-.4 0-.5-.1l-3.9-2.3-3.9-2.3c-.1-.1-.3-.2-.4-.4-.1-.2-.2-.4-.2-.5V0H113z"/><path class="st2" d="M174.6 35.1V40.8c0 .1 0 .2-.1.3-.1.1-.1.2-.2.2l-2.5 1.4-2.5 1.4c-.1 0-.2.1-.3.1-.1 0-.2 0-.3-.1l-2.5-1.4-2.5-1.4c-.1 0-.2-.1-.2-.2-.1-.1-.1-.2-.1-.3v-5.6c0-.1 0-.2.1-.3.1-.1.1-.2.2-.2l2.5-1.4 2.5-1.4c.1 0 .2-.1.3-.1.1 0 .2 0 .3.1l2.5 1.4 2.5 1.4c.1 0 .2.1.2.2.1 0 .1.1.1.2M107.2 74.2v4c0 .1 0 .1-.1.2 0 .1-.1.1-.2.2l-1.7 1-1.7 1h-.4l-1.7-1-1.7-1c-.1 0-.1-.1-.2-.2 0-.1-.1-.2-.1-.2v-4c0-.1 0-.1.1-.2 0-.1.1-.1.2-.2l1.7-1 1.7-1h.4l1.7 1 1.7 1c.1 0 .1.1.2.2.1 0 .1.1.1.2"/><path class="st1" d="M181.9 63.1v8c0 .1-.1.3-.1.4-.1.2-.2.3-.3.3l-3.5 2-3.5 2c-.1.1-.3.1-.5.1s-.3 0-.5-.1l-3.5-2-3.5-2-.3-.3c-.1-.2-.1-.3-.1-.4v-8c0-.1.1-.3.1-.4.1-.2.2-.3.3-.3l3.5-2 3.5-2c.1-.1.3-.1.5-.1s.3 0 .5.1l3.5 2 3.5 2 .3.3c0 .1.1.2.1.4M82.9 63.3v6.8c0 .1 0 .2-.1.4l-.3.3-3 1.7-3 1.7c-.1 0-.2.1-.4.1s-.3 0-.4-.1l-3-1.7-3-1.7-.3-.3c-.1-.1-.1-.3-.1-.4v-6.8c0-.1 0-.2.1-.4l.3-.3 3-1.7 3-1.7c.1 0 .2-.1.4-.1s.3 0 .4.1l3 1.7 3 1.7.3.3c.1.2.1.3.1.4M36.1 56.4V62c0 .1 0 .2-.1.3-.1.1-.1.2-.2.2l-2.5 1.4-2.5 1.4c-.1 0-.2.1-.3.1-.1 0-.2 0-.3-.1l-2.5-1.4-2.5-1.4c-.1 0-.2-.1-.2-.2v-5.8c0-.1 0-.2.1-.3.1-.1.1-.2.2-.2l2.5-1.4 2.5-1.4c.1 0 .2-.1.3-.1.1 0 .2 0 .3.1l2.5 1.4 2.5 1.4c.1 0 .2.1.2.2v.2"/><path class="st2" d="M43.4 84.4v8c0 .1-.1.3-.1.4-.1.2-.2.3-.3.3l-3.5 2-3.5 2c-.1.1-.3.1-.5.1s-.3 0-.5-.1l-3.5-2-3.5-2-.3-.3c-.1-.2-.1-.3-.1-.4v-8c0-.1.1-.3.1-.4.1-.2.2-.3.3-.3l3.5-2 3.5-2c.1-.1.3-.1.5-.1s.3 0 .5.1l3.5 2 3.5 2 .3.3c.1.1.1.2.1.4"/><path class="st1" d="M62.7 125.1v9.2c0 .1-.1.3-.2.5s-.2.3-.4.4l-3.9 2.3-3.9 2.3c-.1.1-.3.1-.5.1s-.4 0-.5-.1l-3.9-2.3-3.9-2.3c-.1-.1-.3-.2-.4-.4-.1-.2-.2-.4-.2-.5v-9.2c0-.1.1-.3.2-.5s.2-.3.4-.4l3.9-2.3 3.9-2.3c.1-.1.3-.1.5-.1s.4 0 .5.1l3.9 2.3 3.9 2.3c.1.1.3.2.4.4.1.1.2.3.2.5M79.9 108.2v5.2c0 .1 0 .2-.1.3-.1.1-.1.2-.2.2l-2.2 1.3-2.2 1.3c-.1 0-.2.1-.3.1-.1 0-.2 0-.3-.1l-2.2-1.3-2.2-1.3c-.1 0-.1-.1-.2-.2s-.1-.2-.1-.3v-5.2c0-.1 0-.2.1-.3.1-.1.1-.2.2-.2l2.2-1.3 2.2-1.3c.1 0 .2-.1.3-.1.1 0 .2 0 .3.1l2.2 1.3 2.2 1.3c.1 0 .1.1.2.2s.1.2.1.3"/><path class="st2" d="M199.7 103.8v9.2c0 .1-.1.3-.2.5s-.2.3-.4.4l-3.9 2.3-3.9 2.3c-.1.1-.3.1-.5.1s-.4 0-.5-.1l-3.9-2.3-3.9-2.3c-.1-.1-.3-.2-.4-.4-.1-.2-.2-.4-.2-.5v-9.2c0-.1.1-.3.2-.5s.2-.3.4-.4l3.9-2.3 3.9-2.3c.1-.1.3-.1.5-.1s.4 0 .5.1l3.9 2.3 3.9 2.3c.1.1.3.2.4.4.2.1.2.3.2.5"/><path class="st1" d="M216.9 86.9v5.2c0 .1 0 .2-.1.3-.1.1-.1.2-.2.2l-2.2 1.3-2.2 1.3c-.1 0-.2.1-.3.1-.1 0-.2 0-.3-.1l-2.2-1.3-2.2-1.3c-.1 0-.1-.1-.2-.2s-.1-.2-.1-.3v-5.2c0-.1 0-.2.1-.3.1-.1.1-.2.2-.2l2.2-1.3 2.2-1.3c.1 0 .2-.1.3-.1.1 0 .2 0 .3.1l2.2 1.3 2.2 1.3c.1 0 .1.1.2.2s.1.2.1.3"/></svg>