<svg version="1.1" id="Layer_1" xmlns="http://www.w3.org/2000/svg" x="0" y="0" viewBox="0 0 1762.5 425.6" style="enable-background:new 0 0 1762.5 425.6" xml:space="preserve"><style>.st0{fill:#00a0dc}.st1{fill:#90cef1}.st2{fill:#fff}</style><path d="M1669.4 321.8V119.7h93.1V83.8h-230.9v35.8h92.7v202.1c0 .1 45.1.1 45.1.1zM1141 133c1.5-3.3 3.7-10 6.7-10s5.5 6.3 6.7 10l38.8 96.8h-91.3L1141 133zm-121.9 188.8h47.3l24-60.2h114.5l24.4 60.2h47.3l-89.8-213.6c-8.5-20-18.8-27-39.2-27-21.4 0-30.7 6.7-39.2 27l-89.3 213.6zM846.9 133.7c0-5.2 2.2-10 4.8-11.8 3-2.2 7.8-2.2 10.7-2.2H909c15.9 0 37.3 3 51 17.4 14.8 15.5 16.6 39.5 16.6 59.9 0 40.3-6.3 58-11.8 67.2-10.3 16.6-26.6 22.2-51.4 22.2h-51.7c-4.1 0-8.5 0-11.5-3.3-3.3-3.7-3-8.1-3-12.9V133.7h-.3zm87.9 188.1c37.3 0 57.3-16.6 66.5-29.2 19.2-25.9 21.1-66.5 21.1-92.4 0-28.5-1.1-62.4-24-87.9-14.4-15.5-36.6-28.1-69.8-28.1h-93.1c-14.4 0-22.2 6.3-25.5 10.3-7.8 8.9-8.1 19.2-8.1 27.7v169.6c0 13.3 5.5 20.3 10 23.6 1.8 1.5 8.9 6.3 26.6 6.3h96.3zm-363.9-119c0-36.2 5.5-55.1 14.8-66.5 14-17.4 36.2-19.2 61.3-19.2 24 0 47.7 2.2 61.3 19.2 7.4 9.2 14.8 25.5 14.8 66.5 0 38.4-6.7 56.5-14.8 66.1-14.4 18.1-36.9 19.6-61.3 19.6-24.8 0-47.3-1.8-61.3-19.6-8.2-9.6-14.8-27.3-14.8-66.1zM647 81.2c-28.8 0-68.4 0-95 25.1-25.9 24.4-27.7 64.3-27.7 96.4 0 27 0 69.8 27.7 96.4 26.2 25.1 66.5 25.1 95 25.1 27.7 0 69.1 0 95-25.1 24.4-23.6 27.3-65.4 27.3-96.4 0-31.4-2.2-72.8-27.3-96.4-26.7-25.1-66.9-25.1-95-25.1z"/><path class="st0" d="M1513.1 83.8h-43.2V259c0 1.8 0 5.9-3.7 5.9-3 0-3.7-3.3-5.5-5.9l-100.5-158.9c-6.3-10.3-16.6-18.5-37.7-18.5-22.5 0-36.2 11.8-36.2 32.1v208h43.2V147c0-4.8 3-6.7 4.8-6.7.7 0 1.8.7 5.5 5.9l100.1 158.1c10.3 16.6 24 20 38.4 20 19.2 0 35.1-9.6 35.1-33.6V83.8h-.3zM444.9 5.5h8.5v419.7h-8.5z"/><path d="M1762.1 423c0 .4 0 .4-.4.7 0 .4-.4.4-.7.4-.4 0-.7.4-1.5.4h-5.2c-.7 0-1.1-.4-1.5-.4s-.7-.4-.7-.4c0-.4-.4-.4-.4-.7v-42.9l-15.1 42.9c0 .4-.4.7-.4.7-.4.4-.7.4-1.1.4s-1.1.4-1.5.4h-4.4c-.4 0-1.1 0-1.5-.4-.4 0-.7-.4-1.1-.7-.4-.4-.4-.4-.4-.7l-14.8-42.9v42.9c0 .4 0 .4-.4.7 0 .4-.4.4-.7.4-.4 0-.7.4-1.5.4h-5.2c-.7 0-1.1-.4-1.5-.4s-.7-.4-.7-.4c0-.4-.4-.4-.4-.7v-46.9c0-1.5.4-2.6 1.1-3.3.7-.7 1.8-1.1 3-1.1h7c1.1 0 2.2 0 3.3.4.7.4 1.8.4 2.2 1.1.7.4 1.1 1.1 1.5 1.8.4.7.7 1.8 1.1 3l11.5 31.4 11.8-31.4c.4-1.1.7-2.2 1.1-3 .4-.7.7-1.5 1.5-1.8.7-.4 1.1-.7 1.8-1.1s1.5-.4 2.6-.4h7c.7 0 1.5 0 1.8.4.4.4 1.1.4 1.1.7.4.4.7.7.7 1.5 0 .4.4 1.1.4 1.8V423h.6zm-205.4-35.8c0-1.8-.4-3.3-1.1-4.4-.7-1.1-2.2-2.2-3.7-2.6-.4 0-1.1-.4-1.8-.4h-7.8v14.8h5.5c1.5 0 3 0 4.1-.7 1.1-.4 2.2-.7 3-1.5.7-.7 1.5-1.5 1.8-2.2-.4-.8 0-1.9 0-3zm13.7 35.8v.7c0 .4-.4.4-.7.4s-1.1.4-1.8.4h-5.9c-.7 0-1.1 0-1.5-.4-.4 0-.7-.4-.7-.7 0-.4-.4-.4-.4-.7l-4.8-11.8c-.7-1.5-1.1-2.6-1.8-3.7s-1.1-1.8-1.8-2.6c-.7-.7-1.5-1.1-2.2-1.5-.7-.4-1.8-.4-3-.4h-3.3v20c0 .4 0 .4-.4.7 0 .4-.4.4-.7.4s-1.1.4-1.5.4h-5.2c-.8 0-1.1-.4-1.5-.4s-.7-.4-.7-.4c0-.4-.4-.4-.4-.7v-48c0-1.1.4-2.2.7-2.6.7-.4 1.5-.7 2.2-.7h17c.7 0 1.8 0 2.6.4 2.2.4 4.1.7 5.5 1.5 1.8.7 3 1.8 4.4 3 1.1 1.1 2.2 2.6 2.6 4.1.7 1.5 1.1 3.3 1.1 5.5 0 1.8-.4 3.3-.7 4.8-.4 1.5-1.1 2.6-1.8 4.1-.7 1.1-1.8 2.2-3.3 3-1.1.7-2.6 1.5-4.4 1.8.7.4 1.5.7 2.2 1.5.7.4 1.5 1.1 1.8 1.8.7.7 1.1 1.5 1.8 2.6.4 1.1 1.1 2.2 1.5 3.3l4.4 10.3c.4 1.1.7 1.8.7 2.2v1.7zm-181.8-25.1c0-3-.4-5.2-.7-7.4s-1.1-4.1-2.2-5.9c-1.1-1.5-2.6-3-4.1-3.7-1.8-.7-4.1-1.5-6.7-1.5-2.6 0-4.8.4-6.7 1.5-1.8 1.1-3.3 2.2-4.4 4.1-1.1 1.5-1.8 3.7-2.2 5.9s-.7 4.4-.7 7c0 3 .4 5.5.7 7.8s1.1 4.4 2.2 5.9 2.6 3 4.1 3.7c1.8.7 4.1 1.1 6.7 1.1 2.6 0 4.8-.4 6.7-1.5 1.8-1.1 3.3-2.2 4.4-4.1 1.1-1.8 1.8-3.7 2.2-5.9.3-2.2.7-4.4.7-7zm11.1-.4c0 4.4-.4 8.1-1.5 11.8-1.1 3.3-2.6 6.3-4.8 8.9-2.2 2.2-4.8 4.1-8.1 5.5-3.3 1.1-6.7 1.8-11.1 1.8-4.1 0-7.8-.4-10.7-1.5-3-1.1-5.5-2.6-7.8-4.8-2.2-2.2-3.7-5.2-4.4-8.5-1.1-3.3-1.5-7.4-1.5-12.2 0-4.4.4-8.1 1.5-11.5 1.1-3.3 2.6-6.3 4.8-8.9 2.2-2.2 4.8-4.1 8.1-5.5 3.3-1.1 7-1.8 11.1-1.8s7.4.4 10.7 1.5c3 1.1 5.5 2.6 7.8 4.8 2.2 2.2 3.7 4.8 4.8 8.5.7 3.4 1.1 7.1 1.1 11.9zm-178.1-21.4v2.2c0 .7 0 1.1-.4 1.5 0 .4-.4.7-.4.7-.4 0-.4.4-.7.4h-17.4v14h16.3c.4 0 .4 0 .7.4.4 0 .4.4.4.7 0 .4.4.7.4 1.5v4c0 .4 0 1.1-.4 1.5 0 .4-.4.7-.4.7s-.4.4-.7.4h-16.3v19.6c0 .4 0 .7-.4.7 0 .4-.4.4-.7.7-.4 0-1.1.4-1.5.4h-5.2c-.7 0-1.1-.4-1.5-.4s-.7-.4-.7-.7c0-.4-.4-.4-.4-.7V376c0-1.1.4-2.2.7-2.6.4-.4 1.5-.7 2.2-.7h24.8c.4 0 .4 0 .7.4 0 0 .4.4.4.7 0 .4.4.7.4 1.5.1-.7.1.1.1.8zm-158.2 0v1.8c0 .7 0 1.1-.4 1.5 0 .4-.4.7-.4.7-.4 0-.4.4-.7.4h-13.3V423c0 .4 0 .4-.4.7 0 .4-.4.4-.7.4s-1.1.4-1.5.4h-5.2c-.8 0-1.1-.4-1.5-.4s-.7-.4-.7-.4c0-.4-.4-.4-.4-.7v-42.5H1025c-.4 0-.4 0-.7-.4-.4 0-.4-.4-.4-.7 0-.4-.4-.7-.4-1.5v-4c0-.7 0-1.1.4-1.5 0-.4.4-.7.4-.7s.4-.4.7-.4h37.3c.4 0 .4 0 .7.4.4 0 .4.4.4.7 0 .4.4.7.4 1.5-.4.7-.4 1.5-.4 2.2zm-182.5 5.5-7.4 22.5h14.8l-7.4-22.5zm24 38.8c.4 1.1.4 1.8.7 2.2 0 .7 0 1.1-.4 1.1-.4.4-.7.4-1.5.4h-6.6c-.7 0-1.5 0-1.8-.4-.4 0-.7-.4-.7-.4 0-.4-.4-.4-.4-.7l-3.7-10.7h-20l-3.3 10.3c0 .4-.4.7-.4 1.1 0 .4-.4.4-.7.7-.4 0-1.1.4-1.8.4h-6c-.7 0-1.1-.4-1.5-.7-.4-.4-.4-.7-.4-1.5s.4-1.5.7-2.2l16.3-46.6c0-.4.4-.7.7-1.1.4-.4.7-.4 1.1-.7.4 0 1.1-.4 1.8-.4h7c1.1 0 1.8 0 2.2.4.4 0 .7.4 1.1.7.4.4.4.7.7 1.1l16.9 47zm-171.8-.7v2.2c0 .7 0 1.1-.4 1.5 0 .4-.4.7-.4.7-.4 0-.4.4-.7.4h-24c-.7 0-1.5-.4-2.2-.7-.7-.4-.7-1.5-.7-2.6v-48c0-.4 0-.4.4-.7 0-.4.4-.4.7-.4s1.1-.4 1.5-.4h5.2c.7 0 1.1.4 1.5.4.4 0 .7.4.7.4 0 .4.4.4.4.7v42.5h16.6c.4 0 .4 0 .7.4.4 0 .4.4.4.7 0 .4.4.7.4 1.5-.1-.1-.1.7-.1 1.4zM562 388.3c0-1.8-.4-3.3-1.1-4.4-.7-1.1-1.5-2.2-2.6-2.6-1.1-.7-1.8-.7-3-1.1-1.1 0-2.2-.4-3.3-.4h-4.4v17.7h4.8c1.8 0 3-.4 4.4-.7 1.1-.4 2.2-1.1 3-1.8.7-.7 1.1-1.8 1.8-3 0-1.1.4-2.2.4-3.7zm11.1-.7c0 3-.4 5.5-1.5 7.8-.7 2.2-2.2 4.1-4.1 5.9-1.8 1.5-4.1 2.6-6.7 3.7-2.6.7-5.5 1.1-9.2 1.1h-4.4v17c0 .4 0 .4-.4.7 0 .4-.4.4-.7.4s-1.1.4-1.5.4h-5.2c-.7 0-1.1-.4-1.5-.4-.4 0-.7-.4-.7-.4 0-.4-.4-.4-.4-.7v-47.3c0-1.1.4-2.2 1.1-3 .7-.7 1.5-1.1 2.6-1.1h16.3c1.1 0 2.6.4 4.1.7 1.5.4 3.3.7 4.8 1.8 1.5.7 3 1.8 4.1 3.3 1.1 1.1 1.8 3 2.6 4.4.3 1.6.7 3.8.7 5.7zM195.1 422.7l163.3-94.2c3.3-1.8 5.9-4.4 7.8-7.8 1.8-3.3 3-7 3-10.7V121.5c0-3.7-1.1-7.4-3-10.7-1.8-3.3-4.4-5.9-7.8-7.8L195.1 8.5c-3.3-1.8-7-3-10.7-3s-7.4 1.1-10.7 3l-163 94.2c-3.3 1.8-5.9 4.4-7.8 7.8-1.8 3.3-3 7-3 10.7v188.4c0 3.7 1.1 7.4 3 10.7s4.4 5.9 7.8 7.8L174 422.3c3.3 1.8 7 3 10.7 3 3.7-.1 7.4-.8 10.4-2.6"/><path class="st0" d="m176.6 327-83.9 48.4 8.1 4.4 83.9-48.4-8.1-4.4zm47.3-30.7c-1.8 3.3-4.8 5.9-8.1 7.8l-31.4 18.1 8.1 4.4 27.3-15.9c4.4-2.6 8.1-6.3 11.1-10.7l-7-3.7zm3.3-13.3v2.2c0 1.1 0 2.6-.4 3.7l7.4 4.1c.7-2.6 1.1-5.2 1.1-8.1v-6.7l-8.1 4.8zM33.6 341.4l8.1 4.4V203.9c0-4.1 1.1-7.8 3-11.1 1.8-3.3 4.8-6.3 8.1-8.1l157.4-90.9c3.3-1.8 7.8-2.2 11.5 0 3.3 1.8 5.5 5.9 5.5 9.6v44.3l8.1 4.4v-48.8c0-7-3.7-13.3-9.6-16.6s-13.3-3.3-19.2 0l-157.7 91c-4.4 2.6-8.5 6.7-11.1 11.1-2.6 4.4-4.1 10-4.1 15.1v137.5z"/><path class="st1" d="M92 152.6V55.8l-8.1 4.4V157l8.1-4.4zm3 56.5c-1.8-3.3-3-7-3-10.7v-36.2l-8.1 4.4v31.8c0 5.2 1.5 10.3 4.1 14.8l7-4.1zm9.9 9.6-1.8-1.1c-1.1-.7-2.2-1.5-3-2.2l-7.4 4.1c1.8 1.8 4.1 3.7 6.3 4.8l5.9 3.3v-8.9zm45.9-196.9-8.1 4.4L266 97.5c3.3 1.8 6.3 4.8 8.1 8.1s3 7.4 3 11.1v181.8c0 4.1-2.2 7.8-5.5 10-3.3 1.8-7.8 1.8-11.5 0l-38.4-22.2-8.1 4.4 42.5 24.8c5.9 3.3 13.3 3.3 19.2 0 5.9-3.3 9.6-10 9.6-16.6V116.7c0-5.2-1.5-10.7-4.1-15.1-2.6-4.4-6.3-8.5-11.1-11.1L150.8 21.8z"/><path class="st2" d="m285.3 166.6 83.9 48.4v-9.2l-83.9-48.4v9.2zM235 140.7c3.7 0 7.4 1.1 10.7 3l31.4 18.1v-9.2l-27.3-15.9c-4.4-2.6-9.6-4.1-14.8-4.1v8.1zm-13.3 4.1 1.8-1.1c1.1-.7 2.2-1.1 3.3-1.5v-8.5c-2.6.7-5.2 1.8-7.4 3l-5.5 3.7 7.8 4.4zM369.1 283v-9.2l-123.4 71.3c-3.3 1.8-7.4 3-11.1 3-4.1 0-7.8-1.1-11.1-3L66.1 254.2c-3.3-1.8-5.5-5.9-5.5-9.6 0-4.1 2.2-7.8 5.5-9.6l38.8-22.2v-9.6L62.4 228c-5.9 3.3-9.6 9.6-9.6 16.6s3.7 13.3 9.6 16.6l157.4 90.9c4.4 2.6 10 4.1 15.1 4.1 5.2 0 10.7-1.5 15.1-4.1L369.1 283zM189.2 169.9c0-3.7 2.2-7.4 5.5-9.2l16.6-9.6c1.5-.7 2.2-2.2 2.2-3.7s-.7-3-2.2-3.7l-22.2-12.6c-1.5-.7-3-1.1-4.4-1.1-1.5 0-3 .4-4.4 1.1l-22.2 12.6c-1.5.7-2.2 2.2-2.2 3.7s.7 3 2.2 3.7l16.6 9.6c3.3 1.8 5.5 5.5 5.5 9.2 0 3.7-2.2 7.4-5.5 9.2l-16.6 9.6c-1.5.7-2.2 2.2-2.2 3.7s.7 3 2.2 3.7l10 5.5 12.2 7c1.5.7 3 1.1 4.4 1.1 1.5 0 3-.4 4.4-1.1l12.2-7 10-5.5c1.5-.7 2.2-2.2 2.2-3.7s-.7-3-2.2-3.7l-16.6-9.6c-3.7-1.8-5.5-5.1-5.5-9.2m63.5 0c0-1.5-.7-3-2.2-3.7l-22.2-12.6c-1.5-.7-3-1.1-4.4-1.1-1.5 0-3 .4-4.4 1.1l-21.8 12.6c-1.5.7-2.2 2.2-2.2 3.7s.7 3 2.2 3.7l22.2 12.6c1.5.7 3 1.1 4.4 1.1 1.5 0 3-.4 4.4-1.1l22.2-12.6c.7-.3 1.8-1.8 1.8-3.7zm-78.7 0c0-1.5-.7-3-2.2-3.7l-22.2-12.6c-1.5-.7-3-1.1-4.4-1.1s-3 .4-4.4 1.1l-22.2 12.6c-1.5.7-2.2 2.2-2.2 3.7s.7 3 2.2 3.7l22.2 12.6c1.5.7 3 1.1 4.4 1.1s3-.4 4.4-1.1l22.2-12.6c1.1-.3 2.2-1.8 2.2-3.7z"/><path class="st1" d="M143 234.2c-3.3 1.8-7.4 1.8-10.7 0l-16.6-9.6c-1.5-.7-3-.7-4.4 0-1.5.7-2.2 2.2-2.2 3.7v25.5c0 1.5.4 3 1.1 4.4.7 1.5 1.8 2.6 3.3 3.3l22.2 12.6c1.5.7 3 .7 4.4 0 1.5-.7 2.2-2.2 2.2-3.7v-19.2c0-3.7 2.2-7.4 5.5-9.2 3.3-1.8 7.4-1.8 10.7 0l16.6 9.6c1.5.7 3 .7 4.4 0 1.5-.7 2.2-2.2 2.2-3.7v-25.5c0-1.5-.4-3-1.1-4.4-.7-1.5-1.8-2.6-3.3-3.3l-22.2-12.6c-1.5-.7-3-.7-4.4 0s-2.2 2.2-2.2 3.7V225c0 3.7-2.2 7.4-5.5 9.2m7.8 13.3c-1.5.7-2.2 2.2-2.2 3.7v25.5c0 1.5.4 3 1.1 4.4.7 1.5 1.8 2.6 3.3 3.3l22.2 12.6c1.5.7 3 .7 4.4 0 1.5-.7 2.2-2.2 2.2-3.7v-25.5c0-1.5-.4-3-1.1-4.4-.7-1.5-1.8-2.6-3.3-3.3l-22.2-12.6c-1.5-.7-3.3-.7-4.4 0zm-39.6-68.3c-1.5.7-2.2 2.2-2.2 3.7v25.5c0 1.5.4 3 1.1 4.4.7 1.5 1.8 2.6 3.3 3.3l22.2 12.6c1.5.7 3 .7 4.4 0 1.5-.7 2.2-2.2 2.2-3.7v-25.5c0-1.5-.4-3-1.1-4.4-.7-1.5-1.8-2.6-3.3-3.3l-22.2-12.6c-1.4-.8-2.9-.8-4.4 0z"/><path class="st0" d="M221.7 242c3.3 1.8 5.5 5.5 5.5 9.2v19.2c0 1.5.7 3 2.2 3.7 1.5.7 3 .7 4.4 0l22.2-12.6c1.5-.7 2.6-1.8 3.3-3.3.7-1.5 1.1-3 1.1-4.4v-25.5c0-1.5-.7-3-2.2-3.7-1.5-.7-3-.7-4.4 0l-16.6 9.6c-3.3 1.8-7.4 1.8-10.7 0-3.3-1.8-5.5-5.5-5.5-9.2v-19.2c0-1.5-.7-3-2.2-3.7s-3-.7-4.4 0l-22.2 12.6c-1.5.7-2.6 1.8-3.3 3.3-.7 1.5-1.1 3-1.1 4.4v25.5c0 1.5.7 3 2.2 3.7s3 .7 4.4 0L211 242c3.3-1.9 7.4-1.9 10.7 0m7.8-13c1.5.7 3 .7 4.4 0l22.2-12.6c1.5-.7 2.6-1.8 3.3-3.3.7-1.5 1.1-3 1.1-4.4v-25.5c0-1.5-.7-3-2.2-3.7-1.5-.7-3-.7-4.4 0l-22.2 12.6c-1.5.7-2.6 1.8-3.3 3.3-.7 1.1-1.1 2.6-1.1 4.1V225c-.1 1.8.7 2.9 2.2 4zm-39.6 68c1.5.7 3 .7 4.4 0l22.2-12.6c1.5-.7 2.6-1.8 3.3-3.3.7-1.5 1.1-3 1.1-4.4v-25.5c0-1.5-.7-3-2.2-3.7s-3-.7-4.4 0l-22.2 12.6c-1.5.7-2.6 1.8-3.3 3.3-.7 1.5-1.1 3-1.1 4.4v25.5c0 1.5.7 3 2.2 3.7z"/></svg>