<svg version="1.1" id="Layer_1" xmlns="http://www.w3.org/2000/svg" xmlns:xlink="http://www.w3.org/1999/xlink" x="0" y="0" viewBox="0 0 344.4 339.3" style="enable-background:new 0 0 344.4 339.3" xml:space="preserve"><style>.st0,.st2{fill-rule:evenodd;clip-rule:evenodd}.st2{fill:#00a0dc}.st3{fill:#90cdf0}.st3,.st4{fill-rule:evenodd;clip-rule:evenodd}.st4,.st5{fill:#fff}</style><path class="st0" d="M0 0h344.4v339.3H0z"/><defs><path id="SVGID_1_" d="M180.6 196.8c-2.5 1.5-5.4 2.2-8.3 2.2-2.9 0-5.8-.7-8.3-2.2l-49.6-28.7c-2.5-1.5-4.6-3.6-6.1-6.1-1.5-2.5-2.3-5.4-2.3-8.3V96.4c0-2.9.8-5.8 2.3-8.3 1.5-2.5 3.6-4.7 6.1-6.1L164 53.3c2.5-1.5 5.4-2.2 8.3-2.2 2.9 0 5.8.7 8.3 2.2L230.2 82c2.5 1.5 4.6 3.6 6.1 6.1 1.5 2.5 2.3 5.4 2.3 8.3v57.3c0 2.9-.8 5.8-2.3 8.3-1.5 2.5-3.6 4.7-6.1 6.1l-49.6 28.7zm-5.2-8.9 49.6-28.7c1-.6 1.8-1.4 2.4-2.4.6-1 .9-2.1.9-3.2V96.4c0-1.1-.3-2.2-.9-3.2-.6-1-1.4-1.8-2.4-2.4l-49.6-28.7c-1-.6-2.1-.8-3.2-.8s-2.3.3-3.2.8l-49.6 28.7c-1 .6-1.8 1.4-2.4 2.4-.6 1-.9 2.1-.9 3.2v57.3c0 1.1.3 2.2.9 3.2.6 1 1.4 1.8 2.4 2.4L169 188c1 .6 2.1.8 3.2.8s2.3-.3 3.2-.9z"/></defs><clipPath id="SVGID_2_"><use xlink:href="#SVGID_1_" style="overflow:visible"/></clipPath><linearGradient id="SVGID_3_" gradientUnits="userSpaceOnUse" x1="265.141" y1="219.43" x2="79.271" y2="30.59"><stop offset="0" style="stop-color:#00a0dc"/><stop offset="1" style="stop-color:#fff"/></linearGradient><path style="clip-path:url(#SVGID_2_);fill:url(#SVGID_3_)" d="M105.9 51h132.7v148H105.9z"/><path class="st0" d="m175.4 187.9 49.6-28.7c1-.6 1.8-1.4 2.4-2.4.6-1 .9-2.1.9-3.2V96.4c0-1.1-.3-2.2-.9-3.2-.6-1-1.4-1.8-2.4-2.4l-49.6-28.7c-1-.6-2.1-.8-3.2-.8s-2.3.3-3.2.8l-49.6 28.7c-1 .6-1.8 1.4-2.4 2.4-.6 1-.9 2.1-.9 3.2v57.3c0 1.1.3 2.2.9 3.2.6 1 1.4 1.8 2.4 2.4L169 188c1 .6 2.1.8 3.2.8s2.3-.3 3.2-.9"/><path class="st2" d="m169.8 159-25.5 14.7 2.4 1.4 25.5-14.7-2.4-1.4zm14.4-9.4c-.6 1-1.4 1.8-2.4 2.4l-9.6 5.5 2.4 1.4 8.3-4.8c1.4-.8 2.5-1.9 3.3-3.3l-2-1.2zm.9-4.1v.6c0 .4 0 .8-.1 1.2l2.2 1.3c.2-.8.3-1.6.3-2.4v-2l-2.4 1.3zm-58.8 17.8 2.4 1.4v-43.3c0-1.2.3-2.4.9-3.4.6-1 1.4-1.9 2.5-2.5L180 88c1.1-.6 2.4-.6 3.4 0 1.1.6 1.7 1.8 1.7 3v13.6l2.4 1.4V91c0-2.1-1.1-4-2.9-5.1-1.8-1-4-1-5.9 0l-47.8 27.6c-1.4.8-2.6 2-3.4 3.4-.8 1.4-1.2 3-1.2 4.6v41.8z"/><path class="st3" d="M144 105.9V76.5l-2.4 1.4v29.4l2.4-1.4zm.9 17.2c-.6-1-.9-2.2-.9-3.3v-11l-2.4 1.4v9.6c0 1.6.4 3.1 1.2 4.5l2.1-1.2zm3.1 2.8-.6-.3c-.3-.2-.7-.4-1-.7l-2.2 1.3c.6.6 1.2 1.1 1.9 1.5l1.8 1v-2.8zm14-59.8-2.4 1.4L197 89.1c1 .6 1.9 1.5 2.5 2.5.6 1 .9 2.2.9 3.4v55.2c0 1.2-.6 2.4-1.7 3-1.1.6-2.4.6-3.4 0l-11.7-6.8-2.4 1.4 12.9 7.5c1.8 1 4 1.1 5.9 0 1.8-1 2.9-3 2.9-5.1V95c0-1.6-.4-3.2-1.2-4.6-.8-1.4-2-2.6-3.4-3.4L162 66.1z"/><path class="st4" d="m202.8 110.2 25.5 14.7v-2.8l-25.5-14.7v2.8zm-15.3-7.9c1.2 0 2.3.3 3.3.9l9.6 5.5V106l-8.3-4.8c-1.4-.8-2.9-1.2-4.5-1.2v2.3zm-4 1.3.5-.3c.3-.2.7-.4 1.1-.5v-2.5c-.8.2-1.6.5-2.3.9l-1.8 1 2.5 1.4zm44.8 42v-2.8l-37.5 21.6c-1 .6-2.2.9-3.4.9-1.2 0-2.4-.3-3.4-.9l-47.8-27.6c-1.1-.6-1.7-1.7-1.7-3 0-1.2.7-2.4 1.7-3L148 124v-2.8l-13 7.5c-1.8 1-2.9 3-2.9 5.1 0 2.1 1.1 4 2.9 5.1l47.8 27.6c1.4.8 3 1.2 4.6 1.2 1.6 0 3.2-.4 4.6-1.2l36.3-20.9zM173.6 111.2c0-1.2.6-2.3 1.6-2.8l5-2.9c.4-.2.7-.7.7-1.2s-.3-.9-.7-1.2l-6.7-3.9c-.4-.2-.9-.4-1.3-.4-.5 0-.9.1-1.3.4l-6.7 3.9c-.4.2-.7.7-.7 1.2s.3.9.7 1.2l5 2.9c1 .6 1.6 1.7 1.6 2.8 0 1.2-.6 2.3-1.6 2.8l-5 2.9c-.4.2-.7.7-.7 1.2s.3.9.7 1.2l3 1.7 3.7 2.1c.4.2.9.4 1.3.4.5 0 .9-.1 1.3-.4l3.7-2.1 3-1.7c.4-.2.7-.7.7-1.2s-.3-.9-.7-1.2l-5-2.9c-1-.5-1.6-1.6-1.6-2.8m19.3 0c0-.5-.3-.9-.7-1.2l-6.7-3.9c-.4-.2-.9-.4-1.3-.4-.5 0-.9.1-1.3.4l-6.7 3.9c-.4.2-.7.7-.7 1.2s.3.9.7 1.2l6.7 3.9c.4.2.9.4 1.3.4.5 0 .9-.1 1.3-.4l6.7-3.9c.4-.3.7-.7.7-1.2zm-24 0c0-.5-.3-.9-.7-1.2l-6.7-3.9c-.4-.2-.9-.4-1.3-.4-.5 0-.9.1-1.3.4l-6.7 3.9c-.4.2-.7.7-.7 1.2s.3.9.7 1.2l6.7 3.9c.4.2.9.4 1.3.4.5 0 .9-.1 1.3-.4l6.7-3.9c.5-.3.7-.7.7-1.2z"/><path class="st3" d="M159.6 130.7c-1 .6-2.3.6-3.3 0l-5-2.9c-.4-.2-.9-.2-1.3 0s-.7.7-.7 1.2v7.7c0 .5.1.9.4 1.3.2.4.6.7 1 1l6.7 3.9c.4.2.9.2 1.3 0s.7-.7.7-1.2v-5.8c0-1.2.6-2.3 1.6-2.8 1-.6 2.3-.6 3.3 0l5 2.9c.4.2.9.2 1.3 0s.7-.7.7-1.2v-7.7c0-.5-.1-.9-.4-1.3-.2-.4-.6-.7-1-1l-6.7-3.9c-.4-.2-.9-.2-1.3 0s-.7.7-.7 1.2v5.8c0 1.2-.6 2.2-1.6 2.8m2.3 4c-.4.2-.7.7-.7 1.2v7.8c0 .5.1.9.4 1.3.2.4.6.7 1 1l6.7 3.9c.4.2.9.2 1.3 0s.7-.7.7-1.2V141c0-.5-.1-.9-.4-1.3-.2-.4-.6-.7-1-1l-6.7-3.9c-.4-.3-.9-.3-1.3-.1zm-12-20.7c-.4.2-.7.7-.7 1.2v7.7c0 .5.1.9.4 1.3.2.4.6.7 1 1l6.7 3.9c.4.2.9.2 1.3 0s.7-.7.7-1.2v-7.7c0-.5-.1-.9-.4-1.3-.2-.4-.6-.7-1-1l-6.7-3.9c-.4-.2-.9-.2-1.3 0z"/><path class="st2" d="M183.5 133.1c1 .6 1.6 1.7 1.6 2.8v5.8c0 .5.3.9.7 1.2.4.2.9.2 1.3 0l6.7-3.9c.4-.2.7-.6 1-1 .2-.4.4-.9.4-1.3V129c0-.5-.3-.9-.7-1.2-.4-.2-.9-.2-1.3 0l-5 2.9c-1 .6-2.3.6-3.3 0s-1.6-1.7-1.6-2.8v-5.8c0-.5-.3-.9-.7-1.2-.4-.2-.9-.2-1.3 0l-6.7 3.9c-.4.2-.7.6-1 1-.2.4-.4.9-.4 1.3v7.7c0 .5.3.9.7 1.2.4.2.9.2 1.3 0l5-2.9c1-.6 2.3-.6 3.3 0m2.3-4c.4.2.9.2 1.3 0l6.7-3.9c.4-.2.7-.6 1-1 .2-.4.4-.9.4-1.3v-7.7c0-.5-.3-.9-.7-1.2-.4-.2-.9-.2-1.3 0l-6.7 3.9c-.4.2-.7.6-1 1-.2.4-.4.9-.4 1.3v7.7c0 .5.3 1 .7 1.2zm-12 20.7c.4.2.9.2 1.3 0l6.7-3.9c.4-.2.7-.6 1-1 .2-.4.4-.9.4-1.3v-7.7c0-.5-.3-.9-.7-1.2-.4-.2-.9-.2-1.3 0l-6.7 3.9c-.4.2-.7.6-1 1-.2.4-.4.9-.4 1.3v7.7c.1.5.3 1 .7 1.2z"/><path class="st5" d="M275.2 268v-39.6h18.2v-7h-45.2v7h18.2V268h8.8zm-103.4-37c.3-.7.7-1.9 1.3-1.9.6 0 1.1 1.3 1.3 1.9l7.6 19h-17.9l7.7-19zm-23.9 37h9.3l4.7-11.8h22.4l4.8 11.8h9.2l-17.6-41.9c-1.7-3.9-3.7-5.3-7.7-5.3-4.2 0-6 1.3-7.7 5.3L147.9 268zm-33.8-36.8c0-1 .4-1.9.9-2.3.6-.5 1.5-.5 2.1-.5h9.1c3.1 0 7.3.6 10 3.4 2.9 3.1 3.3 7.7 3.3 11.7 0 7.9-1.2 11.4-2.3 13.2-2 3.3-5.2 4.3-10 4.3H117c-.8 0-1.7 0-2.3-.7-.7-.7-.6-1.6-.6-2.5v-26.6zm17.3 36.8c7.3 0 11.2-3.3 13-5.7 3.8-5.1 4.1-13 4.1-18.1 0-5.6-.2-12.2-4.7-17.2-2.8-3.1-7.2-5.5-13.6-5.5H112c-2.8 0-4.3 1.3-5 2-1.5 1.7-1.6 3.7-1.6 5.5v33.2c0 2.6 1.1 4 1.9 4.7.3.3 1.7 1.3 5.2 1.3h18.9zm-71.3-23.3c0-7.1 1.1-10.8 2.9-13 2.7-3.4 7.1-3.8 12-3.8 4.7 0 9.3.4 12 3.8 1.5 1.8 2.9 5 2.9 13 0 7.5-1.3 11-2.9 13-2.8 3.5-7.3 3.9-12 3.9-4.9 0-9.2-.3-12-3.9-1.6-1.9-2.9-5.4-2.9-13zM75 220.9c-5.7 0-13.4 0-18.6 4.9-5.1 4.8-5.4 12.6-5.4 18.9 0 5.3 0 13.7 5.4 18.9 5.1 4.9 13 4.9 18.6 4.9 5.4 0 13.5 0 18.6-4.9 4.8-4.7 5.3-12.8 5.3-18.9 0-6.1-.5-14.2-5.3-18.9-5.2-4.9-13.1-4.9-18.6-4.9z"/><path d="M244.6 221.4h-8.5v34.3c0 .3 0 1.1-.7 1.1-.6 0-.7-.7-1.1-1.1l-19.7-31.1c-1.3-2-3.3-3.7-7.4-3.7-4.4 0-7.1 2.3-7.1 6.3V268h8.5v-34.2c0-.9.6-1.3.9-1.3.1 0 .4.1 1.1 1.1l19.6 30.9c2.1 3.3 4.7 3.9 7.5 3.9 3.8 0 6.9-1.9 6.9-6.6v-40.4z" style="fill:#00a0dc"/><path class="st5" d="M293.4 287.8v.1s-.1.1-.2.1-.2 0-.3.1h-1c-.1 0-.2 0-.3-.1-.1 0-.1-.1-.2-.1v-8.5l-3 8.4c0 .1-.1.1-.1.2 0 0-.1.1-.2.1s-.2 0-.3.1h-1c-.1 0-.2 0-.3-.1-.1 0-.1-.1-.2-.1l-.1-.1-2.9-8.4v8.5s-.1.1-.2.1-.2 0-.3.1h-1c-.1 0-.2 0-.3-.1-.1 0-.1-.1-.2-.1V278.7c0-.3.1-.5.2-.6.1-.1.3-.2.6-.2h1.4c.2 0 .5 0 .6.1.2 0 .3.1.5.2.1.1.2.2.3.4.1.2.2.3.2.6l2.2 6.1 2.3-6.1c.1-.2.1-.4.2-.6.1-.2.2-.3.3-.4.1-.1.2-.2.4-.2.1 0 .3-.1.5-.1h1.4c.1 0 .3 0 .4.1.1 0 .2.1.3.2.1.1.1.2.2.3 0 .1.1.2.1.4v8.9zm-40.3-7c0-.3-.1-.6-.2-.9-.2-.2-.4-.4-.8-.5-.1 0-.2 0-.4-.1h-1.5v2.9h1.1c.3 0 .6 0 .8-.1l.6-.3c.1-.1.3-.3.3-.5.1 0 .1-.2.1-.5zm2.7 7v.1s-.1.1-.2.1-.2 0-.4.1h-1.1c-.1 0-.2 0-.3-.1-.1 0-.1-.1-.2-.1 0 0-.1-.1-.1-.2l-.9-2.3c-.1-.3-.2-.5-.3-.7-.1-.2-.2-.4-.4-.5-.1-.1-.3-.2-.4-.3-.2-.1-.4-.1-.6-.1h-.7v3.9c0 .1 0 .1-.1.1 0 0-.1.1-.2.1s-.2 0-.3.1h-1c-.1 0-.2 0-.3-.1-.1 0-.1-.1-.2-.1v-9.5c0-.2.1-.4.2-.5.1-.1.3-.2.4-.2H252.6c.4.1.8.2 1.1.3.3.1.6.3.8.6.2.2.4.5.5.8.1.3.2.7.2 1.1 0 .3 0 .7-.1.9-.1.3-.2.5-.4.8l-.6.6c-.2.2-.5.3-.9.4.2.1.3.2.4.3.1.1.3.2.4.4.1.2.2.3.3.5.1.2.2.4.3.7l.9 2c.1.2.1.4.2.4.1.3.1.4.1.4zm-35.6-4.9c0-.5 0-1-.1-1.5-.1-.4-.2-.8-.4-1.1-.2-.3-.5-.6-.8-.7-.3-.2-.8-.3-1.3-.3s-.9.1-1.3.3c-.3.2-.6.5-.8.8-.2.3-.4.7-.5 1.1-.1.4-.1.9-.1 1.4 0 .6 0 1.1.1 1.5.1.4.2.8.4 1.2.2.3.5.6.8.7.3.2.8.3 1.3.3s.9-.1 1.3-.3c.3-.2.6-.5.8-.8.2-.3.4-.7.4-1.2.2-.4.2-.9.2-1.4zm2.2-.1c0 .9-.1 1.6-.3 2.3-.2.7-.5 1.2-.9 1.7s-.9.8-1.6 1.1c-.6.2-1.3.4-2.2.4-.8 0-1.5-.1-2.1-.3-.6-.2-1.1-.5-1.5-1-.4-.4-.7-1-.9-1.6-.2-.7-.3-1.5-.3-2.4 0-.8.1-1.6.3-2.3.2-.7.5-1.2.9-1.7s.9-.8 1.6-1.1c.6-.3 1.3-.4 2.2-.4.8 0 1.5.1 2.1.3.6.2 1.1.5 1.5 1 .4.4.7 1 .9 1.6.2.8.3 1.5.3 2.4zm-34.9-4.2v.4c0 .1 0 .2-.1.3 0 .1-.1.1-.1.1h-3.5v2.8H187.1l.1.1c0 .1.1.1.1.3v.8c0 .1 0 .2-.1.3 0 .1-.1.1-.1.1H183.8v3.9s-.1.1-.2.1-.2.1-.3.1h-1c-.1 0-.2 0-.3-.1-.1 0-.1-.1-.2-.1l-.1-.1v-9.4c0-.2.1-.4.2-.5.1-.1.3-.2.4-.2h5l.1.1c0 .1.1.2.1.3v.7zm-31 0v.4c0 .1 0 .2-.1.3 0 .1-.1.1-.1.1h-2.7v8.3c0 .1 0 .1-.1.1 0 0-.1.1-.2.1s-.2 0-.3.1h-1c-.1 0-.2 0-.3-.1-.1 0-.1-.1-.2-.1l-.1-.1v-8.3h-2.5l-.1-.1c0-.1 0-.2-.1-.3v-.8c0-.1 0-.2.1-.3 0-.1.1-.1.1-.1H156.4l.1.1c0 .1 0 .2.1.3-.1.2-.1.3-.1.4zm-35.7 1.2-1.5 4.4h2.9l-1.4-4.4zm4.7 7.5c.1.2.1.3.1.5 0 .1 0 .2-.1.3-.1.1-.2.1-.3.1h-1.5c-.1 0-.1-.1-.2-.1 0 0-.1-.1-.1-.2l-.7-2.1h-3.9l-.7 2c0 .1 0 .1-.1.2 0 0-.1.1-.2.1s-.2 0-.3.1h-1.2c-.1 0-.2-.1-.3-.1-.1-.1-.1-.1-.1-.3 0-.1.1-.3.1-.4l3.2-9.2c0-.1.1-.2.1-.2 0-.1.1-.1.2-.1s.2 0 .4-.1h1.5c.2 0 .3 0 .4.1.1 0 .2.1.2.1 0 .1.1.1.1.2l3.4 9.1zm-33.7-.1v.4c0 .1 0 .2-.1.3 0 .1-.1.1-.1.2h-4.8c-.2 0-.3-.1-.4-.2-.1-.1-.2-.3-.2-.5V278c0-.1 0-.1.1-.1 0 0 .1-.1.2-.1s.2 0 .3-.1h1c.1 0 .2 0 .3.1.1 0 .1.1.2.1l.1.1v8.3H91.7l.1.1c0 .1 0 .2.1.3-.1.2-.1.4-.1.5zm-33.4-6.1c0-.4-.1-.7-.2-.9-.1-.2-.3-.4-.5-.5-.2-.1-.4-.2-.6-.2h-1.5v3.5h.9c.3 0 .6 0 .8-.1.2-.1.4-.2.6-.4.1-.2.3-.4.3-.6.1-.3.2-.6.2-.8zm2.2-.2c0 .6-.1 1.1-.3 1.5-.2.4-.4.8-.8 1.1-.3.3-.8.5-1.3.7-.5.2-1.1.2-1.8.2h-.9v3.3c0 .1 0 .1-.1.1 0 0-.1.1-.2.1s-.2 0-.3.1h-1c-.1 0-.2 0-.3-.1-.1 0-.1-.1-.2-.1v-9.4c0-.2.1-.4.2-.6.1-.1.3-.2.5-.2H57.2c.2 0 .5.1.8.1l.9.3c.3.2.6.4.8.6.2.3.4.5.5.9.3.6.4 1 .4 1.4z"/></svg>