<svg version="1.1" id="Layer_1" xmlns="http://www.w3.org/2000/svg" x="0" y="0" viewBox="0 0 300 138.7" style="enable-background:new 0 0 300 138.7" xml:space="preserve"><style>.st0{fill:#00a0dc}.st1{fill:#90cef1}.st2{fill-rule:evenodd;clip-rule:evenodd;fill:#00a0dc}.st3{fill:#007fc5}.st4{fill-rule:evenodd;clip-rule:evenodd;fill:#90cef1}</style><path class="st0" d="M78.5 44.7V3.3c.4 0 .7 0 1 .1l.9.3 11.4 6.6c.4.3.8.6 1 .9.3.4.4.8.4 1.2 0 .4-.1.8-.4 1.2-.2.3-.6.6-1 .9l-8 4.6c-.9.5-1.7 1.2-2.2 2.1-.5.8-.8 1.7-.8 2.7 0 1 .3 1.9.7 2.7.5.8 1.2 1.6 2.1 2.1l8.1 4.7c.4.2.8.6 1 .9.3.4.4.8.4 1.2 0 .4-.1.8-.4 1.2-.2.3-.6.6-1 .9l-11.4 6.6c-.3.2-.6.3-.9.3-.1.1-.5.2-.9.2M113.2 24c0-.4-.1-.8-.4-1.2-.2-.3-.6-.6-1-.9l-11.4-6.6c-.3-.2-.6-.3-.9-.3-.3-.1-.7-.1-1-.1-.4 0-.7 0-1 .1l-.9.3-11.4 6.6c-.4.2-.8.6-1 .9-.3.4-.4.8-.4 1.2 0 .4.1.8.4 1.2.2.3.6.6 1 .9l11.4 6.6c.3.2.6.3.9.3.3.1.7.1 1 .1.4 0 .7 0 1-.1l.9-.3 11.4-6.6c.4-.2.8-.6 1-.9.3-.4.4-.8.4-1.2z"/><path class="st1" d="M80.9 0c.1.2.3.3.4.5.2.2.5.5.8.6l11.4 6.6c.4.2.9.4 1.3.4.5 0 .9-.1 1.2-.3.4-.2.7-.5.9-.9 0-.4.1-.8.1-1.3V0H80.9zm35 19.4c-.4.2-.8.3-1.2.3-.4 0-.8-.2-1.3-.4L102 12.7c-.3-.2-.5-.4-.7-.6-.2-.2-.4-.5-.6-.8-.2-.3-.3-.6-.4-.9-.1-.3-.2-.6-.2-1V.1H114l1.1.6c.3.2.5.4.8.6.2.2.4.5.6.8.2.3.3.6.4.9.1.3.2.6.2 1v13.1c0 .5-.1.9-.3 1.3-.2.4-.5.8-.9 1z"/><path class="st2" d="m240.2 0 37 21.3V0z"/><path class="st3" d="M238.7 44.7V3.3c.4 0 .7 0 1 .1l.9.3 11.4 6.6c.4.3.8.6 1 .9.3.4.4.8.4 1.2 0 .4-.1.8-.4 1.2-.2.3-.6.6-1 .9l-8 4.6c-.9.5-1.7 1.2-2.2 2.1-.5.8-.8 1.7-.8 2.7 0 1 .3 1.9.7 2.7.5.8 1.2 1.6 2.1 2.1l8.1 4.7c.4.2.8.6 1 .9.3.4.4.8.4 1.2 0 .4-.1.8-.4 1.2-.2.3-.6.6-1 .9l-11.4 6.6c-.3.2-.6.3-.9.3-.2.1-.6.2-.9.2M273.4 24c0-.4-.1-.8-.4-1.2-.2-.3-.6-.6-1-.9l-11.4-6.6c-.3-.2-.6-.3-.9-.3-.3-.1-.7-.1-1-.1-.4 0-.7 0-1 .1l-.9.3-11.4 6.6c-.4.2-.8.6-1 .9-.3.4-.4.8-.4 1.2 0 .4.1.8.4 1.2.2.3.6.6 1 .9l11.4 6.6c.3.2.6.3.9.3.3.1.7.1 1 .1.4 0 .7 0 1-.1l.9-.3 11.4-6.6c.4-.2.8-.6 1-.9.2-.4.4-.8.4-1.2z"/><path class="st4" d="m277.2 26.7-37 21.3 37 21.3V47.1z"/><path class="st1" d="M273.4 93.3c0-.4-.1-.8-.4-1.2-.2-.3-.6-.6-1-.9l-11.4-6.6c-.3-.2-.6-.3-.9-.3-.3-.1-.7-.1-1-.1-.4 0-.7 0-1 .1l-.9.3-11.4 6.6c-.4.2-.8.6-1 .9-.3.4-.4.8-.4 1.2 0 .4.1.8.4 1.2.2.3.6.6 1 .9l11.4 6.6c.3.2.6.3.9.3.3.1.7.1 1 .1.4 0 .7 0 1-.1l.9-.3 11.4-6.6c.4-.2.8-.6 1-.9.3-.3.4-.8.4-1.2m5.3 20.7V72.6c-.4 0-.7 0-1 .1l-.9.3-11.4 6.6c-.4.3-.8.6-1 .9-.3.4-.4.8-.4 1.2 0 .4.1.8.4 1.2.2.3.6.6 1 .9l8.1 4.7c.9.5 1.6 1.2 2.1 2.1.5.8.7 1.7.7 2.7 0 1-.3 1.9-.7 2.7-.5.8-1.2 1.6-2.1 2.1l-8.1 4.7c-.4.2-.8.6-1 .9-.3.4-.4.8-.4 1.2 0 .4.1.8.4 1.2.2.3.6.6 1 .9l11.4 6.6c.3.2.6.3.9.3.3.1.6.1 1 .1z"/><path class="st0" d="M236.3 0c-.1.2-.3.3-.4.5-.2.2-.5.5-.7.6l-11.4 6.6c-.4.2-.9.4-1.3.4-.5 0-.9-.1-1.3-.3-.4-.2-.7-.5-.9-.9-.2-.4-.3-.8-.3-1.3V0h16.3zm-35 19.4c.4.2.8.3 1.2.3.4 0 .8-.2 1.3-.4l11.4-6.6c.3-.2.5-.4.7-.6.2-.2.4-.5.6-.8.2-.3.3-.6.4-.9.1-.3.2-.6.2-1V.1h-13.9l-1.1.6c-.3.2-.5.4-.7.6-.2.2-.4.5-.6.8-.2.3-.3.6-.4.9-.1.3-.2.6-.2 1v13.1c0 .5.1.9.3 1.3.1.4.4.8.8 1zM216 54c-.4.2-.8.3-1.2.3-.4 0-.8-.2-1.3-.4l-11.4-6.6c-.3-.2-.5-.4-.7-.6-.2-.2-.4-.5-.6-.8-.2-.3-.3-.6-.4-.9-.1-.3-.2-.6-.2-1V30.9c0-.5.1-.9.3-1.3.2-.4.5-.7.9-.9.4-.2.8-.3 1.2-.3.4 0 .8.2 1.3.4l11.4 6.6c.3.2.5.4.7.6.2.2.4.5.6.8.2.3.3.6.4.9.1.3.2.6.2 1v13.1c0 .5-.1.9-.3 1.3-.2.4-.5.7-.9.9m20.6-5.7L200.8 69c-.2-.3-.3-.6-.4-.9-.1-.3-.2-.6-.2-1V54c0-.5.1-.9.3-1.3.2-.4.5-.7.9-.9.4-.2.8-.3 1.2-.3.4 0 .8.2 1.3.4l8.1 4.7c.9.5 1.9.8 2.9.8.9 0 1.8-.2 2.7-.7.9-.5 1.5-1.2 2-2 .5-.9.7-1.8.7-2.9v-9.4c0-.5.1-.9.3-1.3.2-.4.5-.7.9-.9.4-.2.8-.3 1.2-.3.4 0 .8.2 1.3.4l11.4 6.6c.3.2.5.4.7.6.1.2.3.5.5.8z"/><path class="st1" d="M153.3 24c0-.4-.1-.8-.4-1.2-.2-.3-.6-.6-1-.9l-11.4-6.6c-.3-.2-.6-.3-.9-.3-.3-.1-.7-.1-1-.1-.4 0-.7 0-1 .1l-.9.3-11.4 6.6c-.4.2-.8.6-1 .9-.3.4-.4.8-.4 1.2 0 .4.1.8.4 1.2.2.3.6.6 1 .9l11.4 6.6c.3.2.6.3.9.3.3.1.7.1 1 .1.4 0 .7 0 1-.1l.9-.3 11.4-6.6c.4-.2.8-.6 1-.9.3-.4.4-.8.4-1.2m5.3 20.7V3.3c-.4 0-.7 0-1 .1l-.9.3-11.4 6.6c-.4.3-.8.6-1 .9-.3.4-.4.8-.4 1.2 0 .4.1.8.4 1.2.2.3.6.6 1 .9l8.1 4.7c.9.5 1.6 1.2 2.1 2.1.5.8.7 1.7.7 2.7 0 1-.3 1.9-.7 2.7-.5.8-1.2 1.6-2.1 2.1l-8.1 4.7c-.4.2-.8.6-1 .9-.3.4-.4.8-.4 1.2 0 .4.1.8.4 1.2.2.3.6.6 1 .9l11.4 6.6c.3.2.6.3.9.3.3 0 .6.1 1 .1z"/><path class="st3" d="M156.3 0c-.1.2-.3.3-.4.5-.2.2-.5.5-.7.6l-11.4 6.6c-.4.2-.9.4-1.3.4-.5 0-.9-.1-1.3-.3-.4-.2-.7-.5-.9-.9-.2-.4-.3-.8-.3-1.3V0h16.3zm-35.1 19.4c.4.2.8.3 1.2.3.4 0 .8-.2 1.3-.4l11.4-6.6c.3-.2.5-.4.7-.6.2-.2.4-.5.6-.8.2-.3.3-.6.4-.9.1-.3.2-.6.2-1V.1h-13.9l-1.1.6c-.3.2-.5.4-.7.6-.2.2-.4.5-.6.8-.2.3-.3.6-.4.9-.1.3-.2.6-.2 1v13.1c0 .5.1.9.3 1.3.2.4.5.8.8 1z"/><path class="st4" d="m157.1 48-37 21.3 37 21.4V68.4z"/><path class="st0" d="M158.6 44.7V3.3c.4 0 .7 0 1 .1l.9.3 11.4 6.6c.4.3.8.6 1 .9.3.4.4.8.4 1.2 0 .4-.1.8-.4 1.2-.2.3-.6.6-1 .9l-8 4.6c-.9.5-1.7 1.2-2.2 2.1-.5.8-.8 1.7-.8 2.7 0 1 .3 1.9.7 2.7.5.8 1.2 1.6 2.1 2.1l8.1 4.7c.4.2.8.6 1 .9.3.4.4.8.4 1.2 0 .4-.1.8-.4 1.2-.2.3-.6.6-1 .9l-11.4 6.6c-.3.2-.6.3-.9.3-.2.1-.5.2-.9.2M193.3 24c0-.4-.1-.8-.4-1.2-.2-.3-.6-.6-1-.9l-11.4-6.6c-.3-.2-.6-.3-.9-.3-.3-.1-.7-.1-1-.1-.4 0-.7 0-1 .1l-.9.3-11.4 6.6c-.4.2-.8.6-1 .9-.3.4-.4.8-.4 1.2 0 .4.1.8.4 1.2.2.3.6.6 1 .9l11.4 6.6c.3.2.6.3.9.3.3.1.7.1 1 .1.4 0 .7 0 1-.1l.9-.3 11.4-6.6c.4-.2.8-.6 1-.9.3-.4.4-.8.4-1.2z"/><path class="st4" d="m160.1 0 37 21.3V0z"/><path style="fill-rule:evenodd;clip-rule:evenodd;fill:#007fc5" d="m197.1 26.7-37 21.3 37 21.3V47.1z"/><path class="st0" d="M76.2 0c-.1.2-.3.3-.4.5-.2.2-.5.5-.8.6L63.7 7.7c-.4.2-.9.4-1.3.4-.5 0-.9-.1-1.2-.3-.4-.2-.7-.5-.9-.9-.2-.4-.3-.8-.3-1.3V0h16.2zm-35 19.4c.4.2.8.3 1.2.3.4 0 .8-.2 1.3-.4l11.4-6.6c.3-.2.5-.4.7-.6.2-.2.4-.5.6-.8.2-.3.3-.6.4-.9.1-.3.2-.6.2-1V0H43.1L42 .6c-.3.2-.5.4-.8.6-.2.2-.4.5-.6.8-.2.3-.3.6-.4.9-.1.3-.2.6-.2 1V17c0 .5.1.9.3 1.3.2.5.5.9.9 1.1z"/><path class="st4" d="m0 0 37 21.3V0z"/><path class="st3" d="M300 15c-.1 0-.2 0-.2-.1-.3-.1-.7-.1-1-.1-.4 0-.7 0-1 .1l-.9.3-11.4 6.6c-.4.2-.8.6-1 .9-.3.4-.4.8-.4 1.2 0 .4.1.8.4 1.2.2.3.6.6 1 .9l11.4 6.6c.3.2.6.3.9.3.3.1.7.1 1 .1.4 0 .7 0 1-.1.1 0 .2 0 .2-.1V15z"/><path class="st0" d="M296.1 54c-.4.2-.8.3-1.3.3-.4 0-.8-.2-1.3-.4l-11.4-6.6c-.3-.2-.5-.4-.7-.6-.2-.2-.4-.5-.6-.8-.2-.3-.3-.6-.4-.9-.1-.3-.2-.6-.2-1V30.9c0-.5.1-.9.3-1.3.2-.4.5-.7.9-.9.4-.2.8-.3 1.2-.3.4 0 .8.2 1.3.4l11.4 6.6c.3.2.5.4.7.6.2.2.4.5.6.8.2.3.3.6.4.9.1.3.2.6.2 1v13.1c0 .5-.1.9-.3 1.3-.2.4-.5.7-.8.9m3.9 3.9L280.8 69c-.2-.3-.3-.6-.4-.9-.1-.3-.2-.6-.2-1V54c0-.5.1-.9.3-1.3.2-.4.5-.7.9-.9.4-.2.8-.3 1.2-.3.4 0 .8.2 1.3.4l8.1 4.7c.9.5 1.9.8 2.9.8.9 0 1.8-.2 2.7-.7.9-.5 1.5-1.2 2-2 .2-.4.4-.7.5-1.1v4.3z"/><path class="st1" d="M300 57.9 280.8 69c.2.3.4.6.6.8.2.2.5.5.7.6l11.4 6.6c.4.2.9.4 1.3.4.5 0 .9-.1 1.2-.3.4-.2.7-.5.9-.9.2-.4.3-.8.3-1.3v-9.3c0-1.1.2-2.1.7-2.9.4-.8 1.1-1.5 2-2l.1-.1v-2.7z"/><path class="st0" d="M278.7 114V72.6c.4 0 .7 0 1 .1l.9.3 11.4 6.6c.4.3.8.6 1 .9.3.4.4.8.4 1.2 0 .4-.1.8-.4 1.2-.2.3-.6.6-1 .9l-8 4.6c-.9.5-1.7 1.2-2.2 2.1-.5.8-.8 1.7-.8 2.7 0 1 .3 1.9.7 2.7.5.8 1.2 1.6 2.1 2.1l8.1 4.7c.4.2.8.6 1 .9.3.4.4.8.4 1.2 0 .4-.1.8-.4 1.2-.2.3-.6.6-1 .9l-11.4 6.6c-.3.2-.6.3-.9.3-.2.2-.5.2-.9.2M300 84.4c-.1 0-.2 0-.2-.1-.3-.1-.7-.1-1-.1-.4 0-.7 0-1 .1l-.9.3-11.4 6.6c-.4.2-.8.6-1 .9-.3.4-.4.8-.4 1.2 0 .4.1.8.4 1.2.2.3.6.6 1 .9l11.4 6.6c.3.2.6.3.9.3.3.1.7.1 1 .1.4 0 .7 0 1-.1.1 0 .2 0 .2-.1V84.4z"/><path class="st4" d="M300 0v9.9l-19.8 11.4V0z"/><path class="st2" d="m280.3 117.3 19.7 11.4v10h-19.7v-.9z"/></svg>